<?xml version="1.0" standalone="no"?>
<!DOCTYPE svg PUBLIC "-//W3C//DTD SVG 1.1//EN" "http://www.w3.org/Graphics/SVG/1.1/DTD/svg11.dtd" >
<svg xmlns="http://www.w3.org/2000/svg">
<metadata></metadata>
<defs>
<font id="solidobold" horiz-adv-x="1212" >
<font-face units-per-em="2048" ascent="1536" descent="-512" />
<missing-glyph horiz-adv-x="409" />
<glyph unicode="&#xfb01;" horiz-adv-x="1107" d="M47 870v154h123v178q0 147 67.5 210t200.5 63h553v-312h-225v140h-252q-66 0 -92.5 -30.5t-26.5 -94.5v-154h219v-154h-219v-870h-225v870h-123zM766 0v1024h225v-1024h-225z" />
<glyph unicode="&#xfb02;" horiz-adv-x="1107" d="M47 870v154h123v178q0 147 67.5 210t200.5 63h553v-1475h-225v1303h-252q-66 0 -92.5 -30.5t-26.5 -94.5v-154h219v-154h-219v-870h-225v870h-123z" />
<glyph horiz-adv-x="2048" />
<glyph horiz-adv-x="2048" />
<glyph unicode="&#xd;" horiz-adv-x="2048" />
<glyph unicode=" "  horiz-adv-x="409" />
<glyph unicode="&#x09;" horiz-adv-x="409" />
<glyph unicode="&#xa0;" horiz-adv-x="409" />
<glyph unicode="!" horiz-adv-x="524" d="M143 0h238v240h-238v-240zM143 819v615h238v-615l-37 -416h-164z" />
<glyph unicode="&#x22;" horiz-adv-x="901" d="M115 1194v240h200v-240l-36 -291h-129zM588 1194v240h200v-240l-36 -291h-129z" />
<glyph unicode="#" horiz-adv-x="1306" d="M88 434v123h266v342h-266v121h266v414h121v-414h361v414h122v-414h261v-121h-261v-342h261v-123h-261v-434h-122v434h-361v-434h-121v434h-266zM475 557h361v342h-361v-342z" />
<glyph unicode="$" horiz-adv-x="1163" d="M84 397v115h225v-115q0 -112 78.5 -170.5t194.5 -58.5q115 0 188.5 50.5t73.5 146.5v14q0 59 -41 104t-106 75.5t-144 60t-158 65.5t-144 82t-106 120.5t-41 170.5v20q0 163 113 262t305 113v186h121v-186q190 -17 303 -128t113 -288v-114h-225v114q0 107 -70.5 168.5 t-181.5 61.5q-108 0 -174 -51t-66 -138v-14q0 -47 25 -85t68 -64.5t98 -49.5t116 -45.5t122.5 -47t116.5 -58t98 -75.5t68 -103.5t25 -137.5v-20q0 -172 -120 -274.5t-316 -120.5v-187h-121v187q-195 14 -316.5 126t-121.5 289z" />
<glyph unicode="%" horiz-adv-x="1683" d="M88 819v383q0 114 85 183t216 69t215 -69t84 -183v-383q0 -113 -84 -181.5t-215 -68.5t-216 69t-85 181zM233 819q0 -62 44.5 -97.5t111.5 -35.5t110.5 35.5t43.5 97.5v383q0 63 -43.5 99t-110.5 36t-111.5 -36t-44.5 -99v-383zM391 0h121l778 1434h-121zM995 240v381 q0 114 84.5 182.5t216.5 68.5q131 0 215 -68.5t84 -182.5v-381q0 -114 -84 -183t-215 -69q-132 0 -216.5 69t-84.5 183zM1141 240q0 -63 44 -99.5t111 -36.5q65 0 109.5 37t44.5 99v381q0 62 -44 98.5t-110 36.5q-67 0 -111 -36t-44 -99v-381z" />
<glyph unicode="&#x26;" horiz-adv-x="1361" d="M88 397v54q0 101 46 174.5t126 134.5q-131 140 -131 297v20q0 177 127.5 277t343.5 100q215 0 341 -113t126 -305v-114h-219v114q0 107 -68.5 168.5t-179.5 61.5q-108 0 -174 -51t-66 -138v-14q0 -58 36 -116.5t93 -106.5l359 -303v235h432v-188h-207v-207v-29l207 -176 v-172h-141l-154 131q-64 -73 -169 -112t-236 -39q-217 0 -354.5 114t-137.5 303zM313 397q0 -112 76 -170.5t191 -58.5q177 0 243 102l-424 363q-86 -73 -86 -182v-54z" />
<glyph unicode="'" horiz-adv-x="428" d="M115 1194v240h200v-240l-36 -291h-129z" />
<glyph unicode="(" horiz-adv-x="612" d="M82 717q0 -257 94 -535t260 -489h144q-283 473 -283 1024t283 1024h-144q-166 -211 -260 -489t-94 -535z" />
<glyph unicode=")" horiz-adv-x="608" d="M31 -307q284 470 284 1024t-284 1024h143q167 -211 260.5 -488.5t93.5 -535.5t-93.5 -535.5t-260.5 -488.5h-143z" />
<glyph unicode="*" horiz-adv-x="720" d="M88 1087l182 87l-182 86l62 106l163 -113l-14 199h121l-14 -199l163 113l64 -106l-184 -86l184 -87l-64 -104l-163 113l14 -201h-121l14 201l-163 -113z" />
<glyph unicode="+" horiz-adv-x="915" d="M86 639v176h283v285h178v-285h282v-176h-282v-285h-178v285h-283z" />
<glyph unicode="," horiz-adv-x="444" d="M37 -291h164l123 291v240h-203v-240z" />
<glyph unicode="-" horiz-adv-x="909" d="M106 424v176h697v-176h-697z" />
<glyph unicode="." horiz-adv-x="444" d="M121 0h203v240h-203v-240z" />
<glyph unicode="/" horiz-adv-x="991" d="M47 0h121l778 1434h-121z" />
<glyph unicode="0" horiz-adv-x="1228" d="M117 397v639q0 189 140 303.5t357 114.5t357.5 -114.5t140.5 -303.5v-639q0 -189 -140.5 -303t-357.5 -114t-357 114t-140 303zM354 397q0 -106 74 -167.5t186 -61.5t186 61.5t74 167.5v639q0 106 -74 168t-186 62t-186 -62t-74 -168v-639z" />
<glyph unicode="1" horiz-adv-x="968" d="M84 0v188h303v1057h-303v189h541v-1246h303v-188h-844z" />
<glyph unicode="2" horiz-adv-x="1179" d="M88 0v197q0 96 42 178.5t109 141t148 110t162 95.5t148 88t109 98t42 114v14q0 106 -75 168t-187 62q-110 0 -181 -62t-71 -168v-71h-225v71q0 191 131 304.5t346 113.5q217 0 357 -114.5t140 -303.5v-20q0 -76 -26 -142.5t-69.5 -117t-100.5 -95.5t-119.5 -82 t-125.5 -71t-120 -68.5t-100.5 -69.5t-69.5 -77.5t-26 -89.5v-15h757v-188h-995z" />
<glyph unicode="3" horiz-adv-x="1175" d="M86 397v72h238v-72q0 -105 74.5 -167t185.5 -62q113 0 186.5 59t73.5 164v37q0 100 -74 160.5t-186 60.5h-103v189h103q108 0 179.5 60t72.5 155q-1 101 -71 157t-181 56q-110 0 -181 -62t-71 -168v-71h-226v71q0 191 131.5 304.5t346.5 113.5t343 -102.5t128 -278.5 q0 -112 -53.5 -195.5t-151.5 -129.5q109 -46 170 -130.5t61 -201.5v-43q0 -185 -138.5 -289t-358.5 -104q-217 0 -357.5 114t-140.5 303z" />
<glyph unicode="4" horiz-adv-x="1232" d="M47 356v189l682 891v-2h238v-889h213v-189h-213v-356h-238v356h-682zM305 545h424v551z" />
<glyph unicode="5" horiz-adv-x="1161" d="M100 397v72h226v-72q0 -105 74.5 -167t185.5 -62q113 0 187.5 61.5t74.5 167.5v131q0 105 -74.5 164.5t-187.5 59.5h-457v682h881v-189h-656v-305h232q218 0 358.5 -112.5t140.5 -299.5v-131q0 -189 -140.5 -303t-358.5 -114q-216 0 -351 113.5t-135 303.5z" />
<glyph unicode="6" horiz-adv-x="1200" d="M117 397v639q0 189 140 303.5t357 114.5q215 0 346.5 -113.5t131.5 -304.5v-71h-226v71q0 107 -70.5 168.5t-181.5 61.5q-112 0 -186 -62t-74 -168v-198h260q218 0 358 -112.5t140 -299.5v-29q0 -189 -140.5 -303t-357.5 -114t-357 114t-140 303zM354 397 q0 -106 74 -167.5t186 -61.5t186 61.5t74 167.5v29q0 105 -73.5 164t-186.5 59h-260v-252z" />
<glyph unicode="7" horiz-adv-x="1034" d="M51 1245v189h938v-189q-241 -286 -369 -590t-128 -655h-248q0 323 133 651t375 594h-701z" />
<glyph unicode="8" horiz-adv-x="1181" d="M92 373v24q0 118 63 203t175 131q-100 49 -155.5 135t-55.5 189v16q0 177 128 280t343 103q217 0 345 -103t128 -280v-16q0 -112 -53.5 -196t-151.5 -132q109 -44 170.5 -128.5t61.5 -201.5v-24q0 -124 -65.5 -214t-177.5 -134.5t-257 -44.5q-221 0 -359.5 104 t-138.5 289zM330 391q0 -105 74 -164t186 -59q113 0 187.5 59t74.5 164v19q0 99 -75.5 160t-186.5 61q-110 0 -185 -61t-75 -160v-19zM338 1036q0 -95 72 -156t180 -61q109 0 181.5 61t72.5 156v11q0 103 -71 161t-183 58q-111 0 -181.5 -58t-70.5 -161v-11z" />
<glyph unicode="9" horiz-adv-x="1200" d="M88 1008v28q0 189 140.5 303.5t357.5 114.5t357 -114.5t140 -303.5v-639q0 -189 -140 -303t-357 -114q-215 0 -346 113t-131 304v72h225v-72q0 -106 70.5 -167.5t181.5 -61.5q112 0 186 61.5t74 167.5v199h-260q-218 0 -358 112.5t-140 299.5zM326 1008 q0 -105 73.5 -164.5t186.5 -59.5h260v252q0 106 -74 168t-186 62t-186 -62t-74 -168v-28z" />
<glyph unicode=":" horiz-adv-x="452" d="M125 123h203v239h-203v-239zM125 600h203v240h-203v-240z" />
<glyph unicode=";" horiz-adv-x="520" d="M86 -291h166l121 291v240h-201v-240zM172 600h201v240h-201v-240z" />
<glyph unicode="&#x3c;" horiz-adv-x="856" d="M86 639v166l639 223v-178l-385 -125v-4l385 -125v-178z" />
<glyph unicode="=" horiz-adv-x="948" d="M125 467v178h696v-178h-696zM125 809v178h696v-178h-696z" />
<glyph unicode="&#x3e;" horiz-adv-x="856" d="M129 418l641 221v166l-641 223v-178l387 -125v-4l-387 -125v-178z" />
<glyph unicode="?" horiz-adv-x="1124" d="M70 965v71q0 191 131 304.5t346 113.5q217 0 357 -114.5t140 -303.5v-61q0 -161 -105.5 -270.5t-279.5 -139.5l-24 -186h-176v369h88q113 0 186.5 60.5t73.5 166.5v61q0 106 -74 168t-186 62q-110 0 -181 -62t-71 -168v-71h-225zM428 0v240h238v-240h-238z" />
<glyph unicode="@" horiz-adv-x="1394" d="M113 268v488q0 79 19 149t63 134t111 110t169 73t230 27q127 0 229 -27t168.5 -73t111 -110t63.5 -134t19 -149v-580h-456l-25 80q-57 -90 -170 -90q-97 0 -145.5 56t-48.5 132v262q0 76 48.5 132.5t145.5 56.5q47 0 96 -21.5t80 -74.5l17 84h116v-510h189v473 q0 162 -107.5 257t-330.5 95q-224 0 -332.5 -95t-108.5 -257v-488q0 -162 108.5 -257t332.5 -95v-141q-128 0 -230 27t-169 73t-111 110t-63 134t-19 149zM590 377q0 -46 27.5 -76.5t78.5 -30.5q54 0 86.5 36t32.5 91v176q0 55 -32.5 91t-86.5 36q-51 0 -78.5 -30t-27.5 -76 v-217z" />
<glyph unicode="A" d="M14 0l475 1444h238l463 -1444h-250l-106 354h-461l-107 -354h-252zM428 543h350l-176 583z" />
<glyph unicode="B" horiz-adv-x="1228" d="M141 0v1434h506q205 0 328 -92t123 -275v-20q0 -211 -187 -299q114 -42 181 -126.5t67 -207.5v-29q0 -186 -128 -285.5t-347 -99.5h-543zM379 188h305q50 0 91 11t75 34t53 65t19 99v29q0 103 -68 155t-170 52h-305v-445zM379 821h256q96 0 160.5 47.5t64.5 147.5v33 q0 101 -64.5 148.5t-160.5 47.5h-256v-424z" />
<glyph unicode="C" horiz-adv-x="1196" d="M109 397q0 -189 140 -303t357 -114q219 0 359.5 114t140.5 303v115h-225v-115q0 -112 -79 -170.5t-196 -58.5q-114 0 -187 58t-73 171v639q0 106 74.5 168t185.5 62q114 0 194.5 -62.5t80.5 -167.5v-114h225v114q0 189 -140.5 303.5t-359.5 114.5q-217 0 -357 -114.5 t-140 -303.5v-639z" />
<glyph unicode="D" horiz-adv-x="1245" d="M141 0v1434h510q216 0 352 -114t136 -304v-598q0 -190 -136 -304t-352 -114h-510zM379 188h272q110 0 180 58.5t70 171.5v598q0 106 -71 167.5t-179 61.5h-272v-1057z" />
<glyph unicode="E" horiz-adv-x="1101" d="M141 0v1434h891v-189h-653v-424h526v-188h-526v-445h653v-188h-891z" />
<glyph unicode="F" horiz-adv-x="1083" d="M141 0v1434h891v-189h-653v-477h526v-188h-526v-580h-238z" />
<glyph unicode="G" horiz-adv-x="1202" d="M109 397v639q0 189 140 303.5t357 114.5q219 0 359.5 -114.5t140.5 -303.5v-114h-225v114q0 105 -80.5 167.5t-194.5 62.5q-111 0 -185.5 -62t-74.5 -168v-639q0 -113 73 -171t187 -58q117 0 196 58.5t79 170.5v150h-271v188h496v-338q0 -189 -140.5 -303t-359.5 -114 q-217 0 -357 114t-140 303z" />
<glyph unicode="H" horiz-adv-x="1300" d="M141 0v1434h238v-613h543v613h237v-1434h-237v633h-543v-633h-238z" />
<glyph unicode="I" horiz-adv-x="520" d="M141 0v1434h238v-1434h-238z" />
<glyph unicode="J" horiz-adv-x="679" d="M43 0q99 0 170 8t137.5 30.5t106.5 62.5t64 106t24 158v1069h-238v-1051q0 -115 -59 -155t-205 -40v-188z" />
<glyph unicode="K" horiz-adv-x="1171" d="M141 0v1434h238v-660l516 660h274l-561 -695l578 -739h-287l-520 680v-680h-238z" />
<glyph unicode="L" horiz-adv-x="1054" d="M143 0v1434h238v-1246h633v-188h-871z" />
<glyph unicode="M" horiz-adv-x="1458" d="M141 0v1434h250l348 -623l340 623h238v-1434h-238v664q0 141 13 380l-275 -499h-188l-275 514q13 -253 13 -395v-664h-226z" />
<glyph unicode="N" horiz-adv-x="1341" d="M141 0v1434h250l594 -1022q-10 228 -10 358v664h225v-1434h-237l-607 1026q11 -255 11 -362v-664h-226z" />
<glyph unicode="O" horiz-adv-x="1214" d="M109 397q0 -189 140 -303t357 -114q219 0 359.5 114t140.5 303v639q0 189 -140.5 303.5t-359.5 114.5q-217 0 -357 -114.5t-140 -303.5v-639zM346 397v639q0 106 74.5 168t185.5 62q112 0 187 -62t75 -168v-639q0 -106 -74.5 -167.5t-187.5 -61.5q-111 0 -185.5 62 t-74.5 167z" />
<glyph unicode="P" horiz-adv-x="1167" d="M141 0v1434h490q216 0 351.5 -114t135.5 -304v-86q0 -189 -135.5 -302.5t-351.5 -113.5h-252v-514h-238zM379 702h252q111 0 180.5 57.5t69.5 170.5v86q0 106 -71 167.5t-179 61.5h-252v-543z" />
<glyph unicode="Q" horiz-adv-x="1214" d="M109 397v639q0 189 140 303.5t357 114.5q219 0 359.5 -114.5t140.5 -303.5v-639q0 -161 -104.5 -269t-276.5 -138v-41q0 -104 57.5 -137t206.5 -33v-189q-100 0 -174.5 9t-138.5 31.5t-104 60.5t-62.5 97.5t-22.5 141.5v60q-171 30 -274.5 138t-103.5 269zM346 397 q0 -105 74.5 -167t185.5 -62q113 0 187.5 61.5t74.5 167.5v639q0 106 -75 168t-187 62q-111 0 -185.5 -62t-74.5 -168v-639z" />
<glyph unicode="R" horiz-adv-x="1218" d="M141 0v1434h543q209 0 321.5 -104t112.5 -281v-29q0 -259 -235 -332q80 -31 129.5 -101.5t70.5 -197.5l62 -389h-238l-55 371q-11 71 -32.5 115t-56.5 66t-72 29t-95 7h-217v-588h-238zM379 776h280q222 0 222 209v51q0 96 -56 152.5t-166 56.5h-280v-469z" />
<glyph unicode="S" horiz-adv-x="1157" d="M80 397q0 -189 138 -303t355 -114q144 0 257 45t180 136t67 216v20q0 96 -41 169.5t-106 118t-143.5 79t-157.5 62t-144 57.5t-106 75t-41 105v14q0 87 66 138t176 51t180.5 -62t70.5 -168v-114h226v114q0 191 -131 304.5t-346 113.5q-218 0 -349 -100.5t-131 -276.5v-20 q0 -96 41 -170.5t106 -120.5t144 -82t158 -65.5t144 -60t106 -75.5t41 -104v-14q0 -95 -73.5 -146t-186.5 -51q-117 0 -196 58.5t-79 170.5v115h-225v-115z" />
<glyph unicode="T" horiz-adv-x="978" d="M45 1245v189h887v-189h-320v-1245h-237v1245h-330z" />
<glyph unicode="U" horiz-adv-x="1265" d="M135 397v1037h238v-1037q0 -113 72.5 -171t187.5 -58t187.5 58t72.5 171v1037h237v-1037q0 -189 -140 -303t-357 -114t-357.5 114t-140.5 303z" />
<glyph unicode="V" d="M20 1434h250l338 -1147l338 1147h250l-475 -1444h-238z" />
<glyph unicode="W" horiz-adv-x="1794" d="M25 1434h249l248 -1100l260 1100h244l254 -1096l250 1096h239l-378 -1444h-238l-256 1073l-256 -1073h-238z" />
<glyph unicode="X" horiz-adv-x="1167" d="M-4 0l463 727l-453 707h256l322 -514l319 514h258l-452 -707l462 -727h-258l-329 535l-332 -535h-256z" />
<glyph unicode="Y" horiz-adv-x="1181" d="M4 1434h252l332 -678l342 678h252l-475 -895v-539h-238v539z" />
<glyph unicode="Z" horiz-adv-x="1069" d="M57 0v188l668 1057h-647v189h921v-189l-665 -1057h676v-188h-953z" />
<glyph unicode="[" horiz-adv-x="651" d="M145 -307v2048h447v-142h-283v-1765h283v-141h-447z" />
<glyph unicode="\" horiz-adv-x="991" d="M45 1434h121l778 -1434h-121z" />
<glyph unicode="]" horiz-adv-x="651" d="M57 -166h285v1765h-285v142h449v-2048h-449v141z" />
<glyph unicode="^" horiz-adv-x="1011" d="M213 594l205 287h176l203 -287h-172l-119 170l-119 -170h-174z" />
<glyph unicode="_" horiz-adv-x="921" d="M113 -41h696v-176h-696v176z" />
<glyph unicode="`" horiz-adv-x="800" d="M213 1413h190l185 -287h-160z" />
<glyph unicode="a" horiz-adv-x="1003" d="M57 256v29q0 55 15.5 100.5t56.5 89.5t108 74t176 49t253 20v76q0 44 -12.5 77t-31 51t-47 29t-53 14t-55.5 3q-143 0 -320 -80l-49 158q192 98 391 98q84 0 152.5 -16.5t126.5 -53t90.5 -104.5t32.5 -163v-707h-191l-22 154q-97 -174 -313 -174q-80 0 -142 25.5 t-97 67.5t-52 88.5t-17 94.5zM283 299q0 -64 43.5 -105.5t128.5 -41.5q96 0 153.5 59t57.5 178v107q-93 -1 -162.5 -12t-110.5 -27.5t-66.5 -40.5t-34.5 -48t-9 -53v-16z" />
<glyph unicode="b" horiz-adv-x="1042" d="M117 0h190l23 147q37 -62 95 -101.5t107.5 -52.5t96.5 -13q83 0 147 27.5t100.5 73.5t55 100t18.5 114v434q0 60 -18.5 114t-55 100t-100.5 73.5t-147 27.5q-74 0 -153.5 -36.5t-133.5 -118.5v586h-225v-1475zM342 365v294q0 93 55.5 153t147.5 60q86 0 133 -51.5 t47 -128.5v-360q0 -77 -47 -128.5t-133 -51.5q-92 0 -147.5 60t-55.5 153z" />
<glyph unicode="c" horiz-adv-x="897" d="M88 340q0 -99 30.5 -170.5t86.5 -112t125.5 -59t156.5 -18.5q176 0 357 61l-29 172q-158 -61 -278 -61q-224 0 -224 213v294q0 213 224 213q120 0 278 -61l29 172q-181 61 -357 61q-87 0 -156.5 -18.5t-125.5 -59t-86.5 -112t-30.5 -170.5v-344z" />
<glyph unicode="d" horiz-adv-x="1042" d="M92 295v434q0 60 18.5 114t55.5 100t101 73.5t147 27.5q74 0 153 -36.5t133 -118.5v586h226v-1475h-191l-24 147q-53 -90 -136.5 -128.5t-160.5 -38.5q-83 0 -147 27.5t-101 73.5t-55.5 100t-18.5 114zM317 332q0 -77 47.5 -128.5t133.5 -51.5q92 0 147 60t55 153v294 q0 93 -55 153t-147 60q-86 0 -133.5 -51.5t-47.5 -128.5v-360z" />
<glyph unicode="e" horiz-adv-x="980" d="M88 350v330q0 182 114.5 273t301.5 91q86 0 155.5 -20.5t123 -62.5t83 -112t29.5 -163v-231h-582v-99q0 -61 18.5 -102.5t53 -63t72.5 -30t88 -8.5q77 0 167 16.5t162 44.5l27 -172q-176 -61 -393 -61q-87 0 -160 20t-133 62t-93.5 115.5t-33.5 172.5zM313 602h381v96 q0 88 -52 134.5t-138 46.5t-138.5 -49t-52.5 -138v-90z" />
<glyph unicode="f" horiz-adv-x="651" d="M47 870h123v-870h225v870h219v154h-219v174q0 64 26.5 94.5t92.5 30.5q50 0 100 -12l15 164q-100 20 -191 20q-133 0 -200.5 -62.5t-67.5 -209.5v-199h-123v-154z" />
<glyph unicode="g" horiz-adv-x="1040" d="M92 336q0 -60 18.5 -114t55.5 -100.5t101 -74t147 -27.5q73 0 152 37t132 119v-233q0 -60 -19.5 -101t-54.5 -62t-74 -29.5t-89 -8.5q-164 0 -322 61l-26 -172q176 -61 379 -61q89 0 162.5 19t136 60t98 116t35.5 178v1081h-189l-24 -147q-28 47 -68 81.5t-81.5 52 t-78 25.5t-69.5 8q-83 0 -147 -27.5t-101 -73.5t-55.5 -100t-18.5 -114v-393zM317 373v319q0 78 47 129t134 51q91 0 145.5 -60t54.5 -153v-253q0 -93 -54.5 -153t-145.5 -60q-87 0 -134 51t-47 129z" />
<glyph unicode="h" horiz-adv-x="1062" d="M117 0h225v659q0 93 55.5 153t147.5 60q86 0 133 -51.5t47 -128.5v-692h225v729q0 60 -18.5 114t-55 100t-100.5 73.5t-147 27.5q-74 0 -153.5 -36.5t-133.5 -118.5v586h-225v-1475z" />
<glyph unicode="i" horiz-adv-x="460" d="M117 0h225v1024h-225v-1024zM117 1163h225v283h-225v-283z" />
<glyph unicode="j" horiz-adv-x="460" d="M-117 -410q100 -20 191 -20q133 0 200.5 62.5t67.5 209.5v1182h-225v-1157q0 -64 -26.5 -94.5t-92.5 -30.5q-50 0 -100 12zM117 1163h225v283h-225v-283z" />
<glyph unicode="k" horiz-adv-x="1044" d="M117 0v1475h225v-916l428 465h260l-465 -489l482 -535h-273l-432 483v-483h-225z" />
<glyph unicode="l" horiz-adv-x="460" d="M117 0h225v1475h-225v-1475z" />
<glyph unicode="m" horiz-adv-x="1669" d="M117 0v1024h190l23 -147q37 62 95 101.5t107.5 52.5t96.5 13q116 0 190.5 -50.5t106.5 -133.5q28 54 69.5 92.5t86.5 57t82.5 26.5t70.5 8q83 0 147 -27.5t100.5 -73.5t55 -100t18.5 -114v-729h-225v692q0 78 -46.5 129t-133.5 51q-92 0 -146.5 -60t-54.5 -153v-659h-225 v692q0 77 -47 128.5t-133 51.5q-92 0 -147.5 -60t-55.5 -153v-659h-225z" />
<glyph unicode="n" horiz-adv-x="1062" d="M117 0h225v659q0 93 55.5 153t147.5 60q86 0 133 -51.5t47 -128.5v-692h225v729q0 60 -18.5 114t-55 100t-100.5 73.5t-147 27.5q-47 0 -96.5 -13t-107.5 -52.5t-95 -101.5l-23 147h-190v-1024z" />
<glyph unicode="o" horiz-adv-x="1007" d="M88 344v336q0 182 114.5 273t301.5 91t301.5 -91t114.5 -273v-336q0 -182 -114.5 -273t-301.5 -91t-301.5 91t-114.5 273zM313 332q0 -89 52.5 -138t138.5 -49q85 0 137.5 49t52.5 138v360q0 89 -52.5 138t-137.5 49q-86 0 -138.5 -49t-52.5 -138v-360z" />
<glyph unicode="p" horiz-adv-x="1042" d="M117 -410v1434h190l23 -147q37 62 95 101.5t107.5 52.5t96.5 13q83 0 147 -27.5t100.5 -73.5t55 -100t18.5 -114v-434q0 -60 -18.5 -114t-55 -100t-100.5 -73.5t-147 -27.5q-74 0 -153.5 36.5t-133.5 118.5v-545h-225zM342 365q0 -93 55.5 -153t147.5 -60q86 0 133 51.5 t47 128.5v360q0 77 -47 128.5t-133 51.5q-92 0 -147.5 -60t-55.5 -153v-294z" />
<glyph unicode="q" horiz-adv-x="1042" d="M92 295q0 -60 18.5 -114t55.5 -100t101 -73.5t147 -27.5q74 0 153 36.5t133 118.5v-545h226v1434h-191l-24 -147q-53 90 -136.5 128.5t-160.5 38.5q-83 0 -147 -27.5t-101 -73.5t-55.5 -100t-18.5 -114v-434zM317 332v360q0 77 47.5 128.5t133.5 51.5q92 0 147 -60 t55 -153v-294q0 -93 -55 -153t-147 -60q-86 0 -133.5 51.5t-47.5 128.5z" />
<glyph unicode="r" horiz-adv-x="671" d="M117 0h225v625q0 91 75.5 145.5t211.5 54.5v219q-34 0 -74 -10.5t-84 -33.5t-82.5 -68t-58.5 -105l-23 197h-190v-1024z" />
<glyph unicode="s" horiz-adv-x="937" d="M66 41q181 -61 397 -61q187 0 300.5 80t113.5 216v27q0 75 -31.5 130t-81.5 85.5t-111 51.5t-122 35.5t-111 31t-81.5 45t-31.5 70.5v12q0 54 47.5 84.5t134.5 30.5q152 0 328 -68l29 172q-181 61 -369 61q-197 0 -299 -78t-102 -200v-27q0 -75 31.5 -130.5t81.5 -86 t111 -52t121.5 -36.5t110.5 -31.5t81.5 -44.5t31.5 -69v-13q0 -57 -47.5 -94t-144.5 -37q-75 0 -177.5 20t-175.5 48z" />
<glyph unicode="t" horiz-adv-x="661" d="M47 870v154h121v205h225v-205h215v-154h-215v-594q0 -64 27 -94t92 -30q52 0 102 12l15 -164q-103 -20 -193 -20q-133 0 -200.5 62.5t-67.5 209.5v618h-121z" />
<glyph unicode="u" horiz-adv-x="1062" d="M113 295q0 -60 18.5 -114t55 -100t100.5 -73.5t147 -27.5q33 0 69.5 8t78 25.5t81.5 52t68 81.5l25 -147h188v1024h-225v-659q0 -93 -54.5 -153t-146.5 -60q-87 0 -133.5 51t-46.5 129v692h-225v-729z" />
<glyph unicode="v" horiz-adv-x="956" d="M23 1024h225l233 -778l234 778h219l-348 -1034h-219z" />
<glyph unicode="w" horiz-adv-x="1404" d="M29 1024h221l172 -786l166 786h225l170 -786l174 786h219l-266 -1034h-246l-162 774l-163 -774h-242z" />
<glyph unicode="x" horiz-adv-x="937" d="M12 0l344 512l-344 512h228l233 -346l234 346h219l-348 -512l348 -512h-219l-234 346l-233 -346h-228z" />
<glyph unicode="y" horiz-adv-x="952" d="M2 -410l16 170q62 -18 140 -18q85 0 122.5 30t69.5 113l39 105h-27l-342 1034h226l241 -774l226 774h219l-379 -1120q-34 -103 -71.5 -168.5t-84 -102t-98 -50t-123.5 -13.5q-71 0 -174 20z" />
<glyph unicode="z" horiz-adv-x="901" d="M53 0v154l527 716h-500v154h745v-154l-528 -716h549v-154h-793z" />
<glyph unicode="{" horiz-adv-x="614" d="M59 643q42 -6 70 -19.5t42.5 -28.5t22 -47t8.5 -55.5t1 -72.5q0 -60 -10.5 -212.5t-10.5 -215.5q0 -79 21 -136t53 -88t84.5 -48.5t99 -22t113.5 -4.5v141q-47 0 -80.5 6.5t-64.5 25t-46.5 56t-15.5 94.5q0 62 10.5 226.5t10.5 228.5q0 60 -12 102.5t-38 70t-58 43 t-79 28.5v4q47 13 79 28.5t58 43t38 70t12 102.5q0 64 -10.5 228t-10.5 226q0 57 15.5 94.5t46.5 56t64.5 25t80.5 6.5v142q-67 0 -113.5 -4.5t-99 -22t-84.5 -48.5t-53 -88t-21 -136q0 -63 10.5 -215.5t10.5 -212.5q0 -49 -1 -72.5t-8.5 -55.5t-22 -47t-42.5 -28.5 t-70 -19.5v-148z" />
<glyph unicode="|" horiz-adv-x="411" d="M145 -307v2048h121v-2048h-121z" />
<glyph unicode="}" horiz-adv-x="614" d="M61 -166q47 0 80.5 6.5t64.5 25t46.5 56t15.5 94.5q0 62 -10 226.5t-10 228.5q0 60 12 102.5t37.5 70t57.5 43t79 28.5v4q-47 13 -79 28.5t-57.5 43t-37.5 70t-12 102.5q0 64 10 228t10 226q0 57 -15.5 94.5t-46.5 56t-64.5 25t-80.5 6.5v142q67 0 113.5 -4.5t99 -22 t84.5 -48.5t53 -88t21 -136q0 -63 -10 -215.5t-10 -212.5q0 -36 0.5 -53t3 -44t8 -40t15.5 -30.5t25 -26t38 -17t53 -12.5v-148q-30 -4 -53 -12.5t-38 -17t-25 -26t-15.5 -30.5t-8 -40t-3 -44t-0.5 -53q0 -60 10 -212.5t10 -215.5q0 -79 -21 -136t-53 -88t-84.5 -48.5 t-99 -22t-113.5 -4.5v141z" />
<glyph unicode="~" horiz-adv-x="860" d="M117 618q0 116 45 172t125 56q55 0 144 -43t118 -43q33 0 52.5 21t19.5 65h129q0 -116 -45 -172t-125 -56q-56 0 -146 43.5t-117 43.5q-32 0 -51.5 -21.5t-19.5 -65.5h-129z" />
<glyph unicode="&#xa1;" horiz-adv-x="489" d="M127 -139v-271h238v271l-37 760h-166zM127 784v240h238v-240h-238z" />
<glyph unicode="&#xa2;" horiz-adv-x="946" d="M98 340v344q0 330 340 358v187h121v-187q62 -3 126.5 -15t90 -19.5t78.5 -24.5l-29 -172q-158 61 -278 61q-223 0 -223 -213v-294q0 -213 223 -213q120 0 278 61l29 -172q-53 -17 -78.5 -24.5t-90 -19.5t-126.5 -15v-187h-121v187q-340 28 -340 358z" />
<glyph unicode="&#xa3;" horiz-adv-x="1247" d="M98 518v189h84v370q0 176 130 276.5t347 100.5q215 0 347.5 -113.5t132.5 -304.5v-114h-226v114q0 106 -71 168t-183 62q-108 0 -173.5 -51t-65.5 -138v-370h315v-189h-315v-330h729v-188h-1049v188h82v330h-84z" />
<glyph unicode="&#xa4;" horiz-adv-x="1290" d="M80 516v129h110v158h-110v129h110v104q0 189 140.5 303.5t357.5 114.5t357.5 -114.5t140.5 -303.5v-114h-225v114q0 105 -79.5 167.5t-193.5 62.5q-111 0 -185.5 -62t-74.5 -168v-104h227v-129h-227v-158h227v-129h-227v-119q0 -113 73 -171t187 -58q117 0 195 58.5 t78 170.5v115h225v-115q0 -189 -140.5 -303t-357.5 -114t-357.5 114t-140.5 303v119h-110z" />
<glyph unicode="&#xa5;" horiz-adv-x="1271" d="M49 1434h250l334 -678l340 678h252l-439 -828h224v-176h-260v-430h-238v430h-260v176h225z" />
<glyph unicode="&#xa6;" horiz-adv-x="415" d="M147 -307v921h121v-921h-121zM147 819v922h121v-922h-121z" />
<glyph unicode="&#xa7;" horiz-adv-x="1187" d="M115 571v117h958v-328q0 -176 -130 -276t-347 -100q-215 0 -347 113t-132 304v74h225v-74q0 -106 71 -167.5t183 -61.5q108 0 174 50.5t66 137.5v211h-721zM115 754v323q0 176 130.5 276.5t348.5 100.5q215 0 346 -113.5t131 -304.5v-78h-225v78q0 106 -71 168t-181 62 t-176 -51t-66 -138v-207h721v-116h-958z" />
<glyph unicode="&#xa8;" horiz-adv-x="1095" d="M213 1163h225v283h-225v-283zM655 1163h226v283h-226v-283z" />
<glyph unicode="&#xa9;" horiz-adv-x="1601" d="M84 717q0 204 93 372.5t258 266.5t366 98t366 -98t258 -266.5t93 -372.5q0 -154 -55 -291t-149.5 -234.5t-228 -154.5t-284.5 -57t-284.5 57t-228 154.5t-149.5 234.5t-55 291zM135 717q0 -154 53 -284t143 -218t212 -137t258 -49t257.5 49t212 137t143 218t52.5 284 q0 153 -52.5 283t-143 217.5t-212 136.5t-257.5 49t-258 -49t-212 -136.5t-143 -217.5t-53 -283zM500 526q0 -114 85 -183t216 -69t215 69t84 183v68h-137v-68q0 -67 -46 -101t-116 -34q-69 0 -111.5 34t-42.5 101v381q0 63 43.5 99t110.5 36q68 0 115 -36.5t47 -98.5v-67 h137v67q0 114 -84 183t-215 69t-216 -69t-85 -183v-381z" />
<glyph unicode="&#xaa;" horiz-adv-x="759" d="M121 627v104h504v-104h-504zM121 983v14q0 42 16 75.5t54 63t112.5 45.5t181.5 17v45q0 103 -116 103q-75 0 -193 -48l-31 97q116 59 238 59q108 0 175 -47t67 -156v-424h-117l-16 91q-58 -103 -187 -103q-93 0 -138.5 51.5t-45.5 116.5zM260 1008q0 -38 25.5 -63 t76.5 -25q55 0 89 35.5t34 105.5v61q-129 -1 -177 -29t-48 -75v-10z" />
<glyph unicode="&#xab;" horiz-adv-x="1243" d="M59 428v166l527 391v-190l-314 -281v-4l314 -281v-190zM610 428v166l529 391v-190l-316 -281v-4l316 -281v-190z" />
<glyph unicode="&#xac;" horiz-adv-x="1030" d="M125 639v176h776v-362h-237v186h-539z" />
<glyph unicode="&#xad;" horiz-adv-x="909" d="M106 424v176h697v-176h-697z" />
<glyph unicode="&#xae;" horiz-adv-x="1601" d="M84 717q0 204 93 372.5t258 266.5t366 98t366 -98t258 -266.5t93 -372.5q0 -154 -55 -291t-149.5 -234.5t-228 -154.5t-284.5 -57t-284.5 57t-228 154.5t-149.5 234.5t-55 291zM135 717q0 -154 53 -284t143 -218t212 -137t258 -49t257.5 49t212 137t143 218t52.5 284 q0 153 -52.5 283t-143 217.5t-212 136.5t-257.5 49t-258 -49t-212 -136.5t-143 -217.5t-53 -283zM530 285v860h328q126 0 193 -62.5t67 -169.5v-16q0 -154 -141 -199q99 -38 121 -180l37 -233h-148l-33 223q-11 80 -45.5 104.5t-103.5 24.5h-129v-352h-146zM676 752h168 q129 0 129 122v33q0 56 -32.5 89.5t-96.5 33.5h-168v-278z" />
<glyph unicode="&#xaf;" horiz-adv-x="1101" d="M213 1171v142h674v-142h-674z" />
<glyph unicode="&#xb0;" horiz-adv-x="546" d="M86 1268q0 76 55 131t131 55q78 0 132.5 -54.5t54.5 -131.5q0 -78 -54.5 -132.5t-132.5 -54.5q-77 0 -131.5 54.5t-54.5 132.5zM168 1268q0 -46 29.5 -77.5t74.5 -31.5q46 0 76.5 31.5t30.5 77.5t-30.5 76t-76.5 30t-75 -30t-29 -76z" />
<glyph unicode="&#xb1;" horiz-adv-x="921" d="M100 303v176h721v-176h-721zM100 809v178h273v270h176v-270h272v-178h-272v-270h-176v270h-273z" />
<glyph unicode="&#xb2;" horiz-adv-x="727" d="M61 834v120q0 58 25 108t65 85t88.5 65.5t97.5 57t89 52t65 57.5t25 67v8q0 63 -44.5 99t-111.5 36q-66 0 -107.5 -36t-41.5 -99v-43h-137v43q0 115 78 183.5t208 68.5q131 0 216.5 -69t85.5 -183v-12q0 -58 -25 -107t-65 -83.5t-88.5 -64.5t-97.5 -55.5t-89 -51 t-65 -56.5t-25 -66v-8h455v-116h-601z" />
<glyph unicode="&#xb3;" horiz-adv-x="727" d="M59 1073v43h146v-43q0 -63 44 -99t111 -36q66 0 110 34.5t44 96.5v21q0 60 -44.5 95.5t-109.5 35.5h-61v116h61q65 0 107.5 33.5t42.5 89.5v6q0 60 -42 91.5t-108 31.5t-107.5 -36t-41.5 -99v-43h-139v43q0 115 79 183.5t209 68.5t206.5 -59.5t76.5 -165.5v-8 q0 -135 -119 -193q64 -27 99.5 -77.5t35.5 -119.5v-26q0 -111 -83 -173.5t-216 -62.5q-131 0 -216 69t-85 183z" />
<glyph unicode="&#xb4;" horiz-adv-x="800" d="M213 1126h160l215 287h-189z" />
<glyph unicode="&#xb6;" horiz-adv-x="1292" d="M117 418v598q0 190 135.5 304t351.5 114h144v-1434h-144q-216 0 -351.5 114t-135.5 304zM842 0v1434h370v-142h-204v-1151h204v-141h-370z" />
<glyph unicode="&#xb7;" horiz-adv-x="452" d="M125 412h203v239h-203v-239z" />
<glyph unicode="&#xb8;" horiz-adv-x="876" d="M213 -430l29 92q86 -35 176 -35q104 0 104 92v11q0 42 -25.5 63t-86.5 21h-64v196h92v-98h21q97 0 151 -42.5t54 -129.5v-21q0 -82 -59.5 -136t-162.5 -54q-58 0 -126.5 13t-102.5 28z" />
<glyph unicode="&#xb9;" horiz-adv-x="595" d="M59 834v116h183v627h-183v117h328v-744h180v-116h-508z" />
<glyph unicode="&#xba;" horiz-adv-x="765" d="M131 627v104h502v-104h-502zM131 1034v201q0 109 69.5 164t182.5 55t181.5 -55t68.5 -164v-201q0 -109 -68.5 -164t-181.5 -55t-182.5 55t-69.5 164zM270 1026q0 -52 30.5 -80t82.5 -28q51 0 82 28.5t31 79.5v217q0 51 -31 80t-82 29q-52 0 -82.5 -28.5t-30.5 -80.5v-217 z" />
<glyph unicode="&#xbb;" horiz-adv-x="1243" d="M104 39l527 389v166l-527 391v-190l314 -281v-4l-314 -281v-190zM655 39l529 389v166l-529 391v-190l316 -281v-4l-316 -281v-190z" />
<glyph unicode="&#xbc;" horiz-adv-x="1646" d="M59 573v117h183v627h-183v117h328v-744h180v-117h-508zM332 0l778 1434h123l-778 -1434h-123zM928 211v119l407 532v-2h148v-530h127v-119h-127v-211h-148v211h-407zM1085 330h250v323z" />
<glyph unicode="&#xbd;" horiz-adv-x="1693" d="M59 573v117h183v627h-183v117h328v-744h180v-117h-508zM332 0l778 1434h123l-778 -1434h-123zM1028 0v121q0 58 25 108t65 84.5t89 65t97.5 57t88.5 52t65 57.5t25 67v9q0 63 -44.5 99t-111.5 36q-66 0 -107.5 -36t-41.5 -99v-43h-138v43q0 115 78.5 183t208.5 68 q131 0 216 -68.5t85 -182.5v-13q0 -58 -25 -107t-65 -83.5t-88.5 -64t-97 -55.5t-88.5 -51t-65 -56t-25 -66v-8h454v-117h-600z" />
<glyph unicode="&#xbe;" horiz-adv-x="1777" d="M59 813v43h146v-43q0 -63 44 -99t111 -36q66 0 110 34.5t44 96.5v20q0 60 -44.5 96t-109.5 36h-61v116h61q65 0 107.5 33.5t42.5 89.5v6q0 60 -42 91.5t-108 31.5t-107.5 -36t-41.5 -99v-43h-139v43q0 115 79 183.5t209 68.5t206.5 -59.5t76.5 -165.5v-9 q0 -134 -119 -192q64 -27 99.5 -77.5t35.5 -119.5v-26q0 -111 -83 -173.5t-216 -62.5q-131 0 -216 69t-85 183zM463 0l778 1434h123l-778 -1434h-123zM1059 211v119l407 532v-2h148v-530h127v-119h-127v-211h-148v211h-407zM1217 330h249v323z" />
<glyph unicode="&#xbf;" horiz-adv-x="1112" d="M74 -12v61q0 161 105.5 270.5t279.5 139.5l24 186h179v-369h-89q-113 0 -187.5 -61t-74.5 -166v-61q0 -106 75 -168t187 -62q110 0 181 62t71 168v71h226v-71q0 -191 -131.5 -304.5t-346.5 -113.5q-219 0 -359 114.5t-140 303.5zM455 784v240h237v-240h-237z" />
<glyph unicode="&#xc0;" d="M14 0l475 1444h238l463 -1444h-250l-106 354h-461l-107 -354h-252zM313 1823h191l184 -287h-160zM428 543h350l-176 583z" />
<glyph unicode="&#xc1;" d="M14 0l475 1444h238l463 -1444h-250l-106 354h-461l-107 -354h-252zM428 543h350l-176 583zM522 1536h160l215 287h-188z" />
<glyph unicode="&#xc2;" d="M14 0l475 1444h238l463 -1444h-250l-106 354h-461l-107 -354h-252zM313 1536l205 287h176l203 -287h-172l-119 170l-119 -170h-174zM428 543h350l-176 583z" />
<glyph unicode="&#xc3;" d="M14 0l475 1444h238l463 -1444h-250l-106 354h-461l-107 -354h-252zM289 1544q0 225 172 225q55 0 144 -41.5t118 -41.5q33 0 52.5 20.5t19.5 62.5h129q0 -115 -45.5 -170t-126.5 -55q-56 0 -144.5 43t-115.5 43q-33 0 -53.5 -21.5t-20.5 -64.5h-129zM428 543h350 l-176 583z" />
<glyph unicode="&#xc4;" d="M14 0l475 1444h238l463 -1444h-250l-106 354h-461l-107 -354h-252zM272 1573h226v282h-226v-282zM428 543h350l-176 583zM715 1573h225v282h-225v-282z" />
<glyph unicode="&#xc5;" d="M14 0l475 1444h238l463 -1444h-250l-106 354h-461l-107 -354h-252zM360 1700q0 184 246 184t246 -184t-246 -184t-246 184zM428 543h350l-176 583zM489 1700q0 -47 30 -76t87 -29q58 0 87.5 28.5t29.5 76.5t-29.5 76t-87.5 28q-57 0 -87 -28.5t-30 -75.5z" />
<glyph unicode="&#xc6;" horiz-adv-x="1710" d="M8 0l619 1434h1013v-189h-653v-424h526v-188h-526v-445h653v-188h-890v354h-342l-150 -354h-250zM487 543h263v620z" />
<glyph unicode="&#xc7;" horiz-adv-x="1196" d="M109 397v639q0 189 140 303.5t357 114.5q219 0 359.5 -114.5t140.5 -303.5v-114h-225v114q0 105 -80.5 167.5t-194.5 62.5q-111 0 -185.5 -62t-74.5 -168v-639q0 -113 73 -171t187 -58q117 0 196 58.5t79 170.5v115h225v-115q0 -178 -126.5 -290.5t-326.5 -124.5v-80h21 q97 0 151 -42.5t54 -129.5v-21q0 -82 -59.5 -136t-162.5 -54q-58 0 -126.5 13t-102.5 28l29 92q86 -35 176 -35q104 0 104 92v10q0 42 -25.5 63t-86.5 21h-64v179q-200 12 -326 124.5t-126 290.5z" />
<glyph unicode="&#xc8;" horiz-adv-x="1101" d="M141 0v1434h891v-189h-653v-424h526v-188h-526v-445h653v-188h-891zM281 1823h190l184 -287h-159z" />
<glyph unicode="&#xc9;" horiz-adv-x="1101" d="M141 0v1434h891v-189h-653v-424h526v-188h-526v-445h653v-188h-891zM489 1536h160l215 287h-188z" />
<glyph unicode="&#xca;" horiz-adv-x="1101" d="M141 0v1434h891v-189h-653v-424h526v-188h-526v-445h653v-188h-891zM281 1536l204 287h177l202 -287h-172l-119 170l-118 -170h-174z" />
<glyph unicode="&#xcb;" horiz-adv-x="1101" d="M141 0v1434h891v-189h-653v-424h526v-188h-526v-445h653v-188h-891zM238 1573h225v282h-225v-282zM680 1573h225v282h-225v-282z" />
<glyph unicode="&#xcc;" horiz-adv-x="520" d="M-33 1823h191l184 -287h-160zM141 0v1434h238v-1434h-238z" />
<glyph unicode="&#xcd;" horiz-adv-x="520" d="M141 0v1434h238v-1434h-238zM176 1536h160l215 287h-189z" />
<glyph unicode="&#xce;" horiz-adv-x="520" d="M-33 1536l205 287h176l203 -287h-172l-119 170l-119 -170h-174zM141 0v1434h238v-1434h-238z" />
<glyph unicode="&#xcf;" horiz-adv-x="520" d="M-74 1573h226v282h-226v-282zM141 0v1434h238v-1434h-238zM369 1573h225v282h-225v-282z" />
<glyph unicode="&#xd0;" horiz-adv-x="1267" d="M16 633v188h148v613h510q216 0 351.5 -114t135.5 -304v-598q0 -190 -135.5 -304t-351.5 -114h-510v633h-148zM401 188h273q110 0 180 58.5t70 171.5v598q0 106 -71 167.5t-179 61.5h-273v-424h189v-188h-189v-445z" />
<glyph unicode="&#xd1;" horiz-adv-x="1341" d="M141 0v1434h250l594 -1022q-10 228 -10 358v664h225v-1434h-237l-607 1026q11 -255 11 -362v-664h-226zM352 1544q0 225 172 225q44 0 95 -20.5t95.5 -41.5t71.5 -21q33 0 52.5 20.5t19.5 62.5h129q0 -115 -45.5 -170t-126.5 -55q-56 0 -144.5 43t-115.5 43 q-33 0 -53.5 -21.5t-20.5 -64.5h-129z" />
<glyph unicode="&#xd2;" horiz-adv-x="1214" d="M109 397q0 -189 140 -303t357 -114q219 0 359.5 114t140.5 303v639q0 189 -140.5 303.5t-359.5 114.5q-217 0 -357 -114.5t-140 -303.5v-639zM315 1823h191l184 -287h-160zM346 397v639q0 106 74.5 168t185.5 62q112 0 187 -62t75 -168v-639q0 -106 -74.5 -167.5 t-187.5 -61.5q-111 0 -185.5 62t-74.5 167z" />
<glyph unicode="&#xd3;" horiz-adv-x="1214" d="M109 397q0 -189 140 -303t357 -114q219 0 359.5 114t140.5 303v639q0 189 -140.5 303.5t-359.5 114.5q-217 0 -357 -114.5t-140 -303.5v-639zM346 397v639q0 106 74.5 168t185.5 62q112 0 187 -62t75 -168v-639q0 -106 -74.5 -167.5t-187.5 -61.5q-111 0 -185.5 62 t-74.5 167zM524 1536h160l215 287h-188z" />
<glyph unicode="&#xd4;" horiz-adv-x="1214" d="M109 397q0 -189 140 -303t357 -114q219 0 359.5 114t140.5 303v639q0 189 -140.5 303.5t-359.5 114.5q-217 0 -357 -114.5t-140 -303.5v-639zM315 1536l205 287h176l203 -287h-172l-119 170l-119 -170h-174zM346 397v639q0 106 74.5 168t185.5 62q112 0 187 -62t75 -168 v-639q0 -106 -74.5 -167.5t-187.5 -61.5q-111 0 -185.5 62t-74.5 167z" />
<glyph unicode="&#xd5;" horiz-adv-x="1214" d="M109 397q0 -189 140 -303t357 -114q219 0 359.5 114t140.5 303v639q0 189 -140.5 303.5t-359.5 114.5q-217 0 -357 -114.5t-140 -303.5v-639zM289 1544q0 225 172 225q55 0 144 -41.5t118 -41.5q33 0 52.5 20.5t19.5 62.5h129q0 -115 -45.5 -170t-126.5 -55 q-56 0 -144.5 43t-115.5 43q-33 0 -53.5 -21.5t-20.5 -64.5h-129zM346 397v639q0 106 74.5 168t185.5 62q112 0 187 -62t75 -168v-639q0 -106 -74.5 -167.5t-187.5 -61.5q-111 0 -185.5 62t-74.5 167z" />
<glyph unicode="&#xd6;" horiz-adv-x="1214" d="M109 397q0 -189 140 -303t357 -114q219 0 359.5 114t140.5 303v639q0 189 -140.5 303.5t-359.5 114.5q-217 0 -357 -114.5t-140 -303.5v-639zM272 1573h226v282h-226v-282zM346 397v639q0 106 74.5 168t185.5 62q112 0 187 -62t75 -168v-639q0 -106 -74.5 -167.5 t-187.5 -61.5q-111 0 -185.5 62t-74.5 167zM715 1573h225v282h-225v-282z" />
<glyph unicode="&#xd7;" horiz-adv-x="919" d="M86 479l625 621l125 -125l-625 -621z" />
<glyph unicode="&#xd8;" horiz-adv-x="1214" d="M109 397v639q0 189 140 303.5t357 114.5q185 0 318 -84l59 105h123l-98 -175q98 -112 98 -264v-639q0 -189 -140.5 -303t-359.5 -114q-180 0 -307 79l-57 -100h-121l94 166q-106 109 -106 272zM346 397q0 -25 2 -37l469 822q-75 84 -211 84q-111 0 -185.5 -62t-74.5 -168 v-639zM406 244q73 -76 200 -76q113 0 187.5 61.5t74.5 167.5v639v21z" />
<glyph unicode="&#xd9;" horiz-adv-x="1265" d="M135 397v1037h238v-1037q0 -113 72.5 -171t187.5 -58t187.5 58t72.5 171v1037h237v-1037q0 -189 -140 -303t-357 -114t-357.5 114t-140.5 303zM340 1823h190l185 -287h-160z" />
<glyph unicode="&#xda;" horiz-adv-x="1265" d="M135 397v1037h238v-1037q0 -113 72.5 -171t187.5 -58t187.5 58t72.5 171v1037h237v-1037q0 -189 -140 -303t-357 -114t-357.5 114t-140.5 303zM549 1536h160l215 287h-189z" />
<glyph unicode="&#xdb;" horiz-adv-x="1265" d="M135 397v1037h238v-1037q0 -113 72.5 -171t187.5 -58t187.5 58t72.5 171v1037h237v-1037q0 -189 -140 -303t-357 -114t-357.5 114t-140.5 303zM340 1536l205 287h176l203 -287h-172l-119 170l-119 -170h-174z" />
<glyph unicode="&#xdc;" horiz-adv-x="1265" d="M135 397v1037h238v-1037q0 -113 72.5 -171t187.5 -58t187.5 58t72.5 171v1037h237v-1037q0 -189 -140 -303t-357 -114t-357.5 114t-140.5 303zM299 1573h225v282h-225v-282zM741 1573h226v282h-226v-282z" />
<glyph unicode="&#xdd;" horiz-adv-x="1181" d="M4 1434h252l332 -678l342 678h252l-475 -895v-539h-238v539zM508 1536h160l215 287h-189z" />
<glyph unicode="&#xde;" horiz-adv-x="1167" d="M141 0v1434h238v-246h252q216 0 351.5 -113.5t135.5 -302.5v-88q0 -189 -135.5 -302.5t-351.5 -113.5h-252v-268h-238zM379 457h252q111 0 180.5 57t69.5 170v88q0 104 -71 165.5t-179 61.5h-252v-542z" />
<glyph unicode="&#xdf;" horiz-adv-x="1179" d="M47 870v154h123v106q0 183 115.5 274t306.5 91t306.5 -91t115.5 -274v-77q0 -197 -148 -281q115 -38 182.5 -125t67.5 -217v-45q0 -124 -58 -212t-155.5 -130.5t-224.5 -42.5h-197v188h185q50 0 91 11t74.5 34t52.5 65t19 99v45q0 103 -67.5 155t-169.5 52h-185v189h82 q96 0 160.5 47.5t64.5 148.5v109q0 89 -53 137.5t-143 48.5q-91 0 -144 -48.5t-53 -137.5v-1143h-225v870h-123z" />
<glyph unicode="&#xe0;" horiz-adv-x="1003" d="M57 256v29q0 55 15.5 100.5t56.5 89.5t108 74t176 49t253 20v76q0 44 -12.5 77t-31 51t-47 29t-53 14t-55.5 3q-143 0 -320 -80l-49 158q192 98 391 98q84 0 152.5 -16.5t126.5 -53t90.5 -104.5t32.5 -163v-707h-191l-22 154q-97 -174 -313 -174q-80 0 -142 25.5 t-97 67.5t-52 88.5t-17 94.5zM199 1413h190l184 -287h-159zM283 299q0 -64 43.5 -105.5t128.5 -41.5q96 0 153.5 59t57.5 178v107q-93 -1 -162.5 -12t-110.5 -27.5t-66.5 -40.5t-34.5 -48t-9 -53v-16z" />
<glyph unicode="&#xe1;" horiz-adv-x="1003" d="M57 256v29q0 55 15.5 100.5t56.5 89.5t108 74t176 49t253 20v76q0 44 -12.5 77t-31 51t-47 29t-53 14t-55.5 3q-143 0 -320 -80l-49 158q192 98 391 98q84 0 152.5 -16.5t126.5 -53t90.5 -104.5t32.5 -163v-707h-191l-22 154q-97 -174 -313 -174q-80 0 -142 25.5 t-97 67.5t-52 88.5t-17 94.5zM283 299q0 -64 43.5 -105.5t128.5 -41.5q96 0 153.5 59t57.5 178v107q-93 -1 -162.5 -12t-110.5 -27.5t-66.5 -40.5t-34.5 -48t-9 -53v-16zM408 1126h159l215 287h-188z" />
<glyph unicode="&#xe2;" horiz-adv-x="1003" d="M57 256v29q0 55 15.5 100.5t56.5 89.5t108 74t176 49t253 20v76q0 44 -12.5 77t-31 51t-47 29t-53 14t-55.5 3q-143 0 -320 -80l-49 158q192 98 391 98q84 0 152.5 -16.5t126.5 -53t90.5 -104.5t32.5 -163v-707h-191l-22 154q-97 -174 -313 -174q-80 0 -142 25.5 t-97 67.5t-52 88.5t-17 94.5zM199 1126l204 287h177l202 -287h-172l-118 170l-119 -170h-174zM283 299q0 -64 43.5 -105.5t128.5 -41.5q96 0 153.5 59t57.5 178v107q-93 -1 -162.5 -12t-110.5 -27.5t-66.5 -40.5t-34.5 -48t-9 -53v-16z" />
<glyph unicode="&#xe3;" horiz-adv-x="1003" d="M57 256v29q0 55 15.5 100.5t56.5 89.5t108 74t176 49t253 20v76q0 44 -12.5 77t-31 51t-47 29t-53 14t-55.5 3q-143 0 -320 -80l-49 158q192 98 391 98q84 0 152.5 -16.5t126.5 -53t90.5 -104.5t32.5 -163v-707h-191l-22 154q-97 -174 -313 -174q-80 0 -142 25.5 t-97 67.5t-52 88.5t-17 94.5zM172 1135q0 225 172 225q43 0 94.5 -21t96.5 -42t71 -21q33 0 52.5 21t19.5 63h129q0 -115 -45.5 -170t-126.5 -55q-56 0 -144.5 43t-115.5 43q-33 0 -53.5 -21.5t-20.5 -64.5h-129zM283 299q0 -64 43.5 -105.5t128.5 -41.5q96 0 153.5 59 t57.5 178v107q-93 -1 -162.5 -12t-110.5 -27.5t-66.5 -40.5t-34.5 -48t-9 -53v-16z" />
<glyph unicode="&#xe4;" horiz-adv-x="1003" d="M57 256v29q0 55 15.5 100.5t56.5 89.5t108 74t176 49t253 20v76q0 44 -12.5 77t-31 51t-47 29t-53 14t-55.5 3q-143 0 -320 -80l-49 158q192 98 391 98q84 0 152.5 -16.5t126.5 -53t90.5 -104.5t32.5 -163v-707h-191l-22 154q-97 -174 -313 -174q-80 0 -142 25.5 t-97 67.5t-52 88.5t-17 94.5zM156 1163h225v283h-225v-283zM283 299q0 -64 43.5 -105.5t128.5 -41.5q96 0 153.5 59t57.5 178v107q-93 -1 -162.5 -12t-110.5 -27.5t-66.5 -40.5t-34.5 -48t-9 -53v-16zM598 1163h225v283h-225v-283z" />
<glyph unicode="&#xe5;" horiz-adv-x="1003" d="M57 256v29q0 55 15.5 100.5t56.5 89.5t108 74t176 49t253 20v76q0 44 -12.5 77t-31 51t-47 29t-53 14t-55.5 3q-143 0 -320 -80l-49 158q192 98 391 98q84 0 152.5 -16.5t126.5 -53t90.5 -104.5t32.5 -163v-707h-191l-22 154q-97 -174 -313 -174q-80 0 -142 25.5 t-97 67.5t-52 88.5t-17 94.5zM244 1290q0 185 245 185q246 0 246 -185q0 -184 -246 -184q-245 0 -245 184zM283 299q0 -64 43.5 -105.5t128.5 -41.5q96 0 153.5 59t57.5 178v107q-93 -1 -162.5 -12t-110.5 -27.5t-66.5 -40.5t-34.5 -48t-9 -53v-16zM373 1290 q0 -47 29.5 -75.5t86.5 -28.5q58 0 87.5 28t29.5 76t-29.5 76.5t-87.5 28.5q-57 0 -86.5 -28.5t-29.5 -76.5z" />
<glyph unicode="&#xe6;" horiz-adv-x="1556" d="M57 256v25q0 55 15.5 100.5t56.5 89.5t108 74t176 49t253 20v80q0 44 -12.5 77t-31 51t-47 29t-53 14t-55.5 3q-143 0 -320 -80l-49 158q192 98 391 98q201 0 299 -83q111 83 293 83q116 0 201.5 -35.5t138 -117.5t52.5 -205v-194h-582v-136q0 -61 18.5 -102.5t52.5 -63 t72 -30t88 -8.5q77 0 167.5 16.5t162.5 44.5l27 -172q-176 -61 -394 -61q-136 0 -241.5 49.5t-147.5 152.5q-30 -64 -75 -107.5t-94.5 -62.5t-86.5 -25.5t-75 -6.5q-80 0 -142 25.5t-97 67.5t-52 88.5t-17 94.5zM283 299q0 -64 43.5 -105.5t128.5 -41.5q96 0 153.5 59 t57.5 178v103q-93 -1 -162 -12t-110.5 -27.5t-67 -40.5t-34.5 -48.5t-9 -54.5v-10zM891 614h381v84q0 88 -52.5 134.5t-138.5 46.5q-85 0 -137.5 -49t-52.5 -138v-78z" />
<glyph unicode="&#xe7;" horiz-adv-x="897" d="M88 340v344q0 99 30.5 170.5t86.5 112t125.5 59t156.5 18.5q176 0 357 -61l-29 -172q-158 61 -278 61q-224 0 -224 -213v-294q0 -213 224 -213q120 0 278 61l29 -172q-162 -55 -309 -61v-78h20q97 0 151 -42.5t54 -129.5v-21q0 -82 -59 -136t-162 -54q-58 0 -127.5 13 t-102.5 28l29 92q86 -35 176 -35q104 0 104 92v10q0 42 -25.5 63t-86.5 21h-64v179q-163 8 -258.5 93t-95.5 265z" />
<glyph unicode="&#xe8;" horiz-adv-x="980" d="M88 350v330q0 182 114.5 273t301.5 91q86 0 155.5 -20.5t123 -62.5t83 -112t29.5 -163v-231h-582v-99q0 -61 18.5 -102.5t53 -63t72.5 -30t88 -8.5q77 0 167 16.5t162 44.5l27 -172q-176 -61 -393 -61q-87 0 -160 20t-133 62t-93.5 115.5t-33.5 172.5zM211 1413h190 l185 -287h-160zM313 602h381v96q0 88 -52 134.5t-138 46.5t-138.5 -49t-52.5 -138v-90z" />
<glyph unicode="&#xe9;" horiz-adv-x="980" d="M88 350v330q0 182 114.5 273t301.5 91q86 0 155.5 -20.5t123 -62.5t83 -112t29.5 -163v-231h-582v-99q0 -61 18.5 -102.5t53 -63t72.5 -30t88 -8.5q77 0 167 16.5t162 44.5l27 -172q-176 -61 -393 -61q-87 0 -160 20t-133 62t-93.5 115.5t-33.5 172.5zM313 602h381v96 q0 88 -52 134.5t-138 46.5t-138.5 -49t-52.5 -138v-90zM420 1126h160l215 287h-189z" />
<glyph unicode="&#xea;" horiz-adv-x="980" d="M88 350v330q0 182 114.5 273t301.5 91q86 0 155.5 -20.5t123 -62.5t83 -112t29.5 -163v-231h-582v-99q0 -61 18.5 -102.5t53 -63t72.5 -30t88 -8.5q77 0 167 16.5t162 44.5l27 -172q-176 -61 -393 -61q-87 0 -160 20t-133 62t-93.5 115.5t-33.5 172.5zM211 1126l205 287 h176l203 -287h-172l-119 170l-119 -170h-174zM313 602h381v96q0 88 -52 134.5t-138 46.5t-138.5 -49t-52.5 -138v-90z" />
<glyph unicode="&#xeb;" horiz-adv-x="980" d="M88 350v330q0 182 114.5 273t301.5 91q86 0 155.5 -20.5t123 -62.5t83 -112t29.5 -163v-231h-582v-99q0 -61 18.5 -102.5t53 -63t72.5 -30t88 -8.5q77 0 167 16.5t162 44.5l27 -172q-176 -61 -393 -61q-87 0 -160 20t-133 62t-93.5 115.5t-33.5 172.5zM170 1163h225v283 h-225v-283zM313 602h381v96q0 88 -52 134.5t-138 46.5t-138.5 -49t-52.5 -138v-90zM612 1163h226v283h-226v-283z" />
<glyph unicode="&#xec;" horiz-adv-x="460" d="M-61 1413h190l184 -287h-159zM117 0h225v1024h-225v-1024z" />
<glyph unicode="&#xed;" horiz-adv-x="460" d="M117 0h225v1024h-225v-1024zM147 1126h160l215 287h-188z" />
<glyph unicode="&#xee;" horiz-adv-x="460" d="M-61 1126l204 287h176l203 -287h-172l-119 170l-118 -170h-174zM117 0h225v1024h-225v-1024z" />
<glyph unicode="&#xef;" horiz-adv-x="460" d="M-104 1163h225v283h-225v-283zM117 0h225v1024h-225v-1024zM338 1163h225v283h-225v-283z" />
<glyph unicode="&#xf0;" horiz-adv-x="1144" d="M49 397v29q0 187 140.5 299.5t359.5 112.5h260v198q0 94 -60 155t-155 73v-168h-123v170h-328v188h328v184h123v-186q200 -12 326.5 -125t126.5 -291v-639q0 -189 -140.5 -303t-357.5 -114q-219 0 -359.5 114t-140.5 303zM287 397q0 -106 74.5 -167.5t187.5 -61.5 q111 0 185.5 62t74.5 167v252h-260q-113 0 -187.5 -59t-74.5 -164v-29z" />
<glyph unicode="&#xf1;" horiz-adv-x="1062" d="M117 0h225v659q0 93 55.5 153t147.5 60q86 0 133 -51.5t47 -128.5v-692h225v729q0 60 -18.5 114t-55 100t-100.5 73.5t-147 27.5q-47 0 -96.5 -13t-107.5 -52.5t-95 -101.5l-23 147h-190v-1024zM219 1135q0 225 172 225q55 0 144 -42t118 -42q33 0 52.5 21t19.5 63h129 q0 -115 -45.5 -170t-126.5 -55q-56 0 -144.5 43t-115.5 43q-33 0 -53.5 -21.5t-20.5 -64.5h-129z" />
<glyph unicode="&#xf2;" horiz-adv-x="1007" d="M88 344v336q0 182 114.5 273t301.5 91t301.5 -91t114.5 -273v-336q0 -182 -114.5 -273t-301.5 -91t-301.5 91t-114.5 273zM211 1413h190l185 -287h-160zM313 332q0 -89 52.5 -138t138.5 -49q85 0 137.5 49t52.5 138v360q0 89 -52.5 138t-137.5 49q-86 0 -138.5 -49 t-52.5 -138v-360z" />
<glyph unicode="&#xf3;" horiz-adv-x="1007" d="M88 344v336q0 182 114.5 273t301.5 91t301.5 -91t114.5 -273v-336q0 -182 -114.5 -273t-301.5 -91t-301.5 91t-114.5 273zM313 332q0 -89 52.5 -138t138.5 -49q85 0 137.5 49t52.5 138v360q0 89 -52.5 138t-137.5 49q-86 0 -138.5 -49t-52.5 -138v-360zM420 1126h160 l215 287h-189z" />
<glyph unicode="&#xf4;" horiz-adv-x="1007" d="M88 344v336q0 182 114.5 273t301.5 91t301.5 -91t114.5 -273v-336q0 -182 -114.5 -273t-301.5 -91t-301.5 91t-114.5 273zM211 1126l205 287h176l203 -287h-172l-119 170l-119 -170h-174zM313 332q0 -89 52.5 -138t138.5 -49q85 0 137.5 49t52.5 138v360q0 89 -52.5 138 t-137.5 49q-86 0 -138.5 -49t-52.5 -138v-360z" />
<glyph unicode="&#xf5;" horiz-adv-x="1007" d="M88 344v336q0 182 114.5 273t301.5 91t301.5 -91t114.5 -273v-336q0 -182 -114.5 -273t-301.5 -91t-301.5 91t-114.5 273zM186 1135q0 225 172 225q56 0 145 -42t118 -42q32 0 51.5 21t19.5 63h129q0 -115 -45.5 -170t-126.5 -55q-56 0 -144.5 43t-115.5 43 q-33 0 -53.5 -21.5t-20.5 -64.5h-129zM313 332q0 -89 52.5 -138t138.5 -49q85 0 137.5 49t52.5 138v360q0 89 -52.5 138t-137.5 49q-86 0 -138.5 -49t-52.5 -138v-360z" />
<glyph unicode="&#xf6;" horiz-adv-x="1007" d="M88 344v336q0 182 114.5 273t301.5 91t301.5 -91t114.5 -273v-336q0 -182 -114.5 -273t-301.5 -91t-301.5 91t-114.5 273zM170 1163h225v283h-225v-283zM313 332q0 -89 52.5 -138t138.5 -49q85 0 137.5 49t52.5 138v360q0 89 -52.5 138t-137.5 49q-86 0 -138.5 -49 t-52.5 -138v-360zM612 1163h226v283h-226v-283z" />
<glyph unicode="&#xf7;" horiz-adv-x="958" d="M106 639v176h746v-176h-746zM379 303h201v240h-201v-240zM379 911h201v240h-201v-240z" />
<glyph unicode="&#xf8;" horiz-adv-x="1007" d="M88 -41l88 137q-88 91 -88 248v336q0 182 114.5 273t301.5 91q145 0 246 -55l49 76h121l-89 -137q89 -92 89 -248v-336q0 -182 -114.5 -273t-301.5 -91q-145 0 -246 55l-49 -76h-121zM313 311l332 514q-54 54 -141 54q-86 0 -138.5 -49t-52.5 -138v-360v-21zM362 199 q54 -54 142 -54q85 0 137.5 49t52.5 138v360v21z" />
<glyph unicode="&#xf9;" horiz-adv-x="1062" d="M113 295q0 -60 18.5 -114t55 -100t100.5 -73.5t147 -27.5q33 0 69.5 8t78 25.5t81.5 52t68 81.5l25 -147h188v1024h-225v-659q0 -93 -54.5 -153t-146.5 -60q-87 0 -133.5 51t-46.5 129v692h-225v-729zM240 1413h190l184 -287h-159z" />
<glyph unicode="&#xfa;" horiz-adv-x="1062" d="M113 295q0 -60 18.5 -114t55 -100t100.5 -73.5t147 -27.5q33 0 69.5 8t78 25.5t81.5 52t68 81.5l25 -147h188v1024h-225v-659q0 -93 -54.5 -153t-146.5 -60q-87 0 -133.5 51t-46.5 129v692h-225v-729zM449 1126h159l215 287h-188z" />
<glyph unicode="&#xfb;" horiz-adv-x="1062" d="M113 295q0 -60 18.5 -114t55 -100t100.5 -73.5t147 -27.5q33 0 69.5 8t78 25.5t81.5 52t68 81.5l25 -147h188v1024h-225v-659q0 -93 -54.5 -153t-146.5 -60q-87 0 -133.5 51t-46.5 129v692h-225v-729zM240 1126l204 287h177l202 -287h-172l-119 170l-118 -170h-174z" />
<glyph unicode="&#xfc;" horiz-adv-x="1062" d="M113 295q0 -60 18.5 -114t55 -100t100.5 -73.5t147 -27.5q33 0 69.5 8t78 25.5t81.5 52t68 81.5l25 -147h188v1024h-225v-659q0 -93 -54.5 -153t-146.5 -60q-87 0 -133.5 51t-46.5 129v692h-225v-729zM197 1163h225v283h-225v-283zM639 1163h225v283h-225v-283z" />
<glyph unicode="&#xfd;" horiz-adv-x="952" d="M2 -410l16 170q62 -18 140 -18q85 0 122.5 30t69.5 113l39 105h-27l-342 1034h226l241 -774l226 774h219l-379 -1120q-34 -103 -71.5 -168.5t-84 -102t-98 -50t-123.5 -13.5q-71 0 -174 20zM395 1126h160l215 287h-188z" />
<glyph unicode="&#xfe;" horiz-adv-x="1042" d="M117 -410v1885h225v-586q54 82 133.5 118.5t153.5 36.5q83 0 147 -27.5t100.5 -73.5t55 -100t18.5 -114v-434q0 -60 -18.5 -114t-55 -100t-100.5 -73.5t-147 -27.5q-74 0 -153.5 36.5t-133.5 118.5v-545h-225zM342 365q0 -93 55.5 -153t147.5 -60q86 0 133 51.5t47 128.5 v360q0 77 -47 128.5t-133 51.5q-92 0 -147.5 -60t-55.5 -153v-294z" />
<glyph unicode="&#xff;" horiz-adv-x="952" d="M2 -410l16 170q62 -18 140 -18q85 0 122.5 30t69.5 113l39 105h-27l-342 1034h226l241 -774l226 774h219l-379 -1120q-34 -103 -71.5 -168.5t-84 -102t-98 -50t-123.5 -13.5q-71 0 -174 20zM143 1163h226v283h-226v-283zM586 1163h225v283h-225v-283z" />
<glyph unicode="&#x152;" horiz-adv-x="1828" d="M111 397v639q0 191 129 304.5t344 113.5q286 0 381 -194v174h794v-189h-653v-424h526v-188h-526v-445h653v-188h-794v174q-95 -194 -381 -194q-215 0 -344 113t-129 304zM348 397q0 -106 74 -167.5t186 -61.5t186 61.5t74 167.5v639q0 106 -74 168t-186 62t-186 -62 t-74 -168v-639z" />
<glyph unicode="&#x153;" horiz-adv-x="1587" d="M88 344v336q0 182 114.5 273t301.5 91q195 0 303 -92q111 92 303 92q179 0 286 -88t107 -270v-231h-583v-99q0 -61 18.5 -102.5t52.5 -63t72 -30t88 -8.5q77 0 167.5 16.5t162.5 44.5l28 -172q-181 -61 -393 -61q-198 0 -307 92q-111 -92 -305 -92q-187 0 -301.5 91 t-114.5 273zM313 332q0 -89 52.5 -138t138.5 -49q85 0 137.5 49t52.5 138v360q0 89 -52.5 138t-137.5 49q-86 0 -138.5 -49t-52.5 -138v-360zM920 602h383v96q0 88 -52.5 134.5t-140.5 46.5q-85 0 -137.5 -49t-52.5 -138v-90z" />
<glyph unicode="&#x178;" horiz-adv-x="1181" d="M4 1434h252l332 -678l342 678h252l-475 -895v-539h-238v539zM256 1573h225v282h-225v-282zM698 1573h226v282h-226v-282z" />
<glyph unicode="&#x2c6;" horiz-adv-x="1011" d="M213 1126l205 287h176l203 -287h-172l-119 170l-119 -170h-174z" />
<glyph unicode="&#x2dc;" horiz-adv-x="663" d="M106 1135q0 116 45.5 170.5t127.5 54.5q55 0 144 -42t118 -42q32 0 51.5 21t19.5 63h129q0 -115 -45.5 -170t-126.5 -55q-56 0 -144.5 43t-115.5 43q-33 0 -53 -21t-20 -65h-130z" />
<glyph unicode="&#x2000;" horiz-adv-x="942" />
<glyph unicode="&#x2001;" horiz-adv-x="1884" />
<glyph unicode="&#x2002;" horiz-adv-x="942" />
<glyph unicode="&#x2003;" horiz-adv-x="1884" />
<glyph unicode="&#x2004;" horiz-adv-x="628" />
<glyph unicode="&#x2005;" horiz-adv-x="471" />
<glyph unicode="&#x2006;" horiz-adv-x="314" />
<glyph unicode="&#x2007;" horiz-adv-x="314" />
<glyph unicode="&#x2008;" horiz-adv-x="235" />
<glyph unicode="&#x2009;" horiz-adv-x="376" />
<glyph unicode="&#x200a;" horiz-adv-x="104" />
<glyph unicode="&#x2010;" horiz-adv-x="909" d="M106 424v176h697v-176h-697z" />
<glyph unicode="&#x2011;" horiz-adv-x="909" d="M106 424v176h697v-176h-697z" />
<glyph unicode="&#x2012;" horiz-adv-x="909" d="M106 424v176h697v-176h-697z" />
<glyph unicode="&#x2013;" horiz-adv-x="1216" d="M106 424v176h1004v-176h-1004z" />
<glyph unicode="&#x2014;" horiz-adv-x="1421" d="M106 424v176h1209v-176h-1209z" />
<glyph unicode="&#x2018;" horiz-adv-x="440" d="M125 903h201v240l-72 291h-129v-531z" />
<glyph unicode="&#x2019;" horiz-adv-x="434" d="M109 1194v240h200v-531h-129z" />
<glyph unicode="&#x201a;" horiz-adv-x="444" d="M121 0v240h203v-531h-129z" />
<glyph unicode="&#x201c;" horiz-adv-x="913" d="M125 903v531h129l72 -291v-240h-201zM598 903v531h129l72 -291v-240h-201z" />
<glyph unicode="&#x201d;" horiz-adv-x="907" d="M109 1194v240h200v-531h-129zM582 1194v240h200v-531h-129z" />
<glyph unicode="&#x201e;" horiz-adv-x="917" d="M121 0v240h203v-531h-129zM596 0v240h201v-531h-129z" />
<glyph unicode="&#x2022;" horiz-adv-x="477" d="M125 606h225v262h-225v-262z" />
<glyph unicode="&#x2026;" horiz-adv-x="1392" d="M121 0h203v240h-203v-240zM596 0h201v240h-201v-240zM1069 0h201v240h-201v-240z" />
<glyph unicode="&#x202f;" horiz-adv-x="376" />
<glyph unicode="&#x2039;" horiz-adv-x="690" d="M59 428v166l527 391v-190l-314 -281v-4l314 -281v-190z" />
<glyph unicode="&#x203a;" horiz-adv-x="690" d="M104 39l527 389v166l-527 391v-190l314 -281v-4l-314 -281v-190z" />
<glyph unicode="&#x205f;" horiz-adv-x="471" />
<glyph unicode="&#x20ac;" horiz-adv-x="1290" d="M80 516v129h110v158h-110v129h110v104q0 189 140.5 303.5t357.5 114.5t357.5 -114.5t140.5 -303.5v-114h-225v114q0 105 -79.5 167.5t-193.5 62.5q-111 0 -185.5 -62t-74.5 -168v-104h227v-129h-227v-158h227v-129h-227v-119q0 -113 73 -171t187 -58q117 0 195 58.5 t78 170.5v115h225v-115q0 -189 -140.5 -303t-357.5 -114t-357.5 114t-140.5 303v119h-110z" />
<glyph unicode="&#x2122;" horiz-adv-x="1589" d="M104 1317v117h535v-117h-193v-744h-145v744h-197zM741 573v861h154l207 -371l203 371h145v-861h-145v392q0 95 6 227l-160 -293h-117l-162 303q9 -138 9 -237v-392h-140z" />
<glyph unicode="&#xe000;" horiz-adv-x="1024" d="M0 0v1024h1024v-1024h-1024z" />
<glyph unicode="&#xfb03;" horiz-adv-x="1703" d="M47 870v154h123v199q0 147 67.5 209.5t200.5 62.5q91 0 191 -20l-15 -164q-50 12 -100 12q-66 0 -92.5 -30.5t-26.5 -94.5v-174h371v178q0 147 67.5 210t200.5 63h553v-312h-225v140h-252q-65 0 -92 -30.5t-27 -94.5v-154h219v-154h-219v-870h-225v870h-371v-870h-225 v870h-123zM1362 0v1024h225v-1024h-225z" />
<glyph unicode="&#xfb04;" horiz-adv-x="1703" d="M47 870v154h123v199q0 147 67.5 209.5t200.5 62.5q91 0 191 -20l-15 -164q-50 12 -100 12q-66 0 -92.5 -30.5t-26.5 -94.5v-174h371v178q0 147 67.5 210t200.5 63h553v-1475h-225v1303h-252q-65 0 -92 -30.5t-27 -94.5v-154h219v-154h-219v-870h-225v870h-371v-870h-225 v870h-123z" />
</font>
</defs>
</svg>
