<?xml version="1.0" standalone="no"?>
<!DOCTYPE svg PUBLIC "-//W3C//DTD SVG 1.1//EN" "http://www.w3.org/Graphics/SVG/1.1/DTD/svg11.dtd" >
<svg xmlns="http://www.w3.org/2000/svg">
<metadata></metadata>
<defs>
<font id="solidoblack" horiz-adv-x="1261" >
<font-face units-per-em="2048" ascent="1536" descent="-512" />
<missing-glyph horiz-adv-x="409" />
<glyph unicode="&#xfb01;" horiz-adv-x="1193" d="M49 817v207h105v145q0 160 74 233t227 73h635v-320h-308v88h-221q-54 0 -77 -26t-23 -80v-113h194v-207h-194v-817h-307v817h-105zM782 0v1024h308v-1024h-308z" />
<glyph unicode="&#xfb02;" horiz-adv-x="1193" d="M49 817v207h105v145q0 160 74 233t227 73h635v-1475h-308v1243h-221q-54 0 -77 -26t-23 -80v-113h194v-207h-194v-817h-307v817h-105z" />
<glyph horiz-adv-x="2048" />
<glyph horiz-adv-x="2048" />
<glyph unicode="&#xd;" horiz-adv-x="2048" />
<glyph unicode=" "  horiz-adv-x="409" />
<glyph unicode="&#x09;" horiz-adv-x="409" />
<glyph unicode="&#xa0;" horiz-adv-x="409" />
<glyph unicode="!" horiz-adv-x="581" d="M129 0h324v279h-324v-279zM129 819v615h324v-615l-52 -377h-223z" />
<glyph unicode="&#x22;" horiz-adv-x="980" d="M100 1155v279h273v-279l-49 -299h-172zM608 1155v279h273v-279l-52 -299h-172z" />
<glyph unicode="#" horiz-adv-x="1339" d="M82 403v162h266v324h-266v164h266v381h162v-381h326v381h161v-381h260v-164h-260v-324h260v-162h-260v-403h-161v403h-326v-403h-162v403h-266zM510 565h326v324h-326v-324z" />
<glyph unicode="$" horiz-adv-x="1210" d="M76 416v96h307v-96q0 -90 62.5 -135t160.5 -45q92 0 148.5 38t56.5 105v12q0 38 -24.5 68.5t-66 53t-95 43.5t-113 43t-118.5 47.5t-112.5 61.5t-95 80.5t-66 108.5t-24.5 141v21q0 166 112.5 269t315.5 122v188h162v-188q199 -21 313.5 -140t114.5 -292v-96h-307v96 q0 81 -55.5 130.5t-145.5 49.5t-138 -37t-48 -102v-12q0 -49 39.5 -86t102.5 -62t139.5 -50t152.5 -59.5t139 -79.5t102.5 -120.5t39.5 -173.5v-21q0 -168 -122.5 -278.5t-326.5 -132.5v-189h-162v189q-207 19 -327.5 137.5t-120.5 294.5z" />
<glyph unicode="%" horiz-adv-x="1757" d="M80 831v361q0 114 87 188t230 74t230.5 -74t87.5 -188v-361q0 -114 -87.5 -188t-230.5 -74t-230 74t-87 188zM274 831q0 -49 34 -77.5t89 -28.5t89 28.5t34 77.5v361q0 47 -34.5 76.5t-88.5 29.5t-88.5 -29.5t-34.5 -76.5v-361zM408 0h161l779 1434h-162zM1040 250v360 q0 114 88 188t232 74q143 0 230 -74t87 -188v-360q0 -114 -87 -188t-230 -74q-144 0 -232 74t-88 188zM1237 250q0 -49 34 -78t89 -29q54 0 87.5 29t33.5 78v360q0 49 -33.5 78t-87.5 29q-55 0 -89 -29t-34 -78v-360z" />
<glyph unicode="&#x26;" horiz-adv-x="1404" d="M74 416v35q0 168 162 301q-121 133 -121 286v21q0 184 130 289.5t369 105.5q235 0 363.5 -121t128.5 -315v-96h-299v96q0 82 -51.5 131t-141.5 49t-138 -37t-48 -102v-12q0 -90 123 -189l256 -205v158h520v-256h-213v-147l213 -170v-238h-188l-140 115 q-141 -135 -405 -135q-237 0 -378.5 122.5t-141.5 313.5zM381 416q0 -91 58.5 -135.5t154.5 -44.5q127 0 182 61l-344 281q-51 -54 -51 -127v-35z" />
<glyph unicode="'" horiz-adv-x="473" d="M100 1155v279h273v-279l-49 -299h-172z" />
<glyph unicode="(" horiz-adv-x="647" d="M72 717q0 -261 94.5 -538t267.5 -486h191q-263 452 -263 1024t263 1024h-191q-173 -209 -267.5 -486t-94.5 -538z" />
<glyph unicode=")" horiz-adv-x="643" d="M23 -307q262 451 262 1024t-262 1024h190q173 -209 267.5 -486t94.5 -538t-94.5 -538t-267.5 -486h-190z" />
<glyph unicode="*" horiz-adv-x="745" d="M78 1083l176 76l-176 76l82 141l153 -112l-22 190h164l-23 -190l154 112l84 -141l-178 -76l178 -76l-84 -141l-154 115l23 -193h-164l22 193l-153 -115z" />
<glyph unicode="+" horiz-adv-x="919" d="M78 606v242h262v260h240v-260h262v-242h-262v-260h-240v260h-262z" />
<glyph unicode="," horiz-adv-x="495" d="M16 -299h222l147 299v279h-274v-279z" />
<glyph unicode="-" horiz-adv-x="909" d="M106 391v242h697v-242h-697z" />
<glyph unicode="." horiz-adv-x="495" d="M111 0h274v279h-274v-279z" />
<glyph unicode="/" horiz-adv-x="1030" d="M45 0h164l778 1434h-164z" />
<glyph unicode="0" horiz-adv-x="1265" d="M104 416v602q0 190 145.5 313t383.5 123t384 -123t146 -313v-602q0 -190 -146 -313t-384 -123t-383.5 123t-145.5 313zM428 416q0 -81 57 -130.5t148 -49.5t148 49.5t57 130.5v602q0 81 -57 130.5t-148 49.5t-148 -49.5t-57 -130.5v-602z" />
<glyph unicode="1" horiz-adv-x="1034" d="M82 0v256h295v922h-295v256h618v-1178h295v-256h-913z" />
<glyph unicode="2" horiz-adv-x="1228" d="M82 0v260q0 99 40.5 180.5t105.5 137t143 101.5t156.5 83t143.5 72.5t105.5 79t40.5 92.5v12q0 81 -57.5 130.5t-147.5 49.5q-91 0 -146.5 -49t-55.5 -131v-78h-308v78q0 192 137 314t373 122q237 0 383 -123t146 -313v-21q0 -77 -25 -144t-67.5 -115.5t-98 -91 t-116.5 -74.5t-121.5 -61t-116 -56t-98 -54.5t-67.5 -61t-25 -71.5v-12h735v-256h-1059z" />
<glyph unicode="3" horiz-adv-x="1216" d="M74 416v78h323v-78q0 -81 57.5 -130.5t149.5 -49.5t148.5 46t56.5 126v26q0 79 -56.5 125.5t-148.5 46.5h-102v256h102q91 0 146 46.5t55 123.5t-54.5 121.5t-146.5 44.5q-91 0 -147 -49.5t-56 -130.5v-78h-307v78q0 192 137 314t373 122t368 -107.5t132 -283.5v-6 q0 -217 -176 -318q98 -48 151.5 -130t53.5 -191v-37q0 -185 -143.5 -293t-385.5 -108q-238 0 -384 123t-146 313z" />
<glyph unicode="4" horiz-adv-x="1292" d="M45 322v258l666 858v-4h325v-854h207v-258h-207v-322h-325v322h-666zM395 580h316v395z" />
<glyph unicode="5" horiz-adv-x="1200" d="M92 416v78h307v-78q0 -81 57 -130.5t148 -49.5q92 0 149.5 49.5t57.5 130.5v121q0 80 -57 126t-150 46h-487v725h938v-256h-631v-213h180q239 0 385 -120t146 -308v-121q0 -190 -146.5 -313t-384.5 -123q-235 0 -373.5 122.5t-138.5 313.5z" />
<glyph unicode="6" horiz-adv-x="1236" d="M104 416v602q0 190 145.5 313t383.5 123q236 0 373 -122t137 -314v-78h-307v78q0 81 -56 130.5t-147 49.5t-148 -49.5t-57 -130.5v-156h205q239 0 384.5 -120t145.5 -308v-18q0 -190 -146 -313t-384 -123t-383.5 123t-145.5 313zM428 416q0 -81 57 -130.5t148 -49.5 t148 49.5t57 130.5v18q0 80 -56.5 126t-148.5 46h-205v-190z" />
<glyph unicode="7" horiz-adv-x="1075" d="M45 1178v256h987v-256q-104 -124 -181 -244t-143 -265.5t-100.5 -314t-34.5 -354.5h-340q0 306 122 615.5t354 562.5h-664z" />
<glyph unicode="8" horiz-adv-x="1224" d="M84 381v22q0 227 215 326q-91 55 -138.5 136.5t-47.5 176.5v21q0 176 131.5 283.5t367.5 107.5t368 -107.5t132 -283.5v-21q0 -216 -176 -317q99 -48 153 -130.5t54 -191.5v-22q0 -185 -144 -293t-387 -108q-242 0 -385 108t-143 293zM408 408q0 -81 56 -126.5t148 -45.5 t148.5 46t56.5 126v14q0 77 -56.5 123.5t-148.5 46.5q-91 0 -147.5 -46.5t-56.5 -123.5v-14zM412 1018q0 -77 54.5 -123.5t145.5 -46.5t147 47t56 123v10q0 79 -55.5 124.5t-147.5 45.5q-91 0 -145.5 -45.5t-54.5 -124.5v-10z" />
<glyph unicode="9" horiz-adv-x="1236" d="M76 999v19q0 190 145 313t383 123t384.5 -123t146.5 -313v-602q0 -190 -146.5 -313t-384.5 -123q-236 0 -372 122t-136 314v78h307v-78q0 -82 55 -131t146 -49t148 49.5t57 130.5v155h-205q-239 0 -383.5 120t-144.5 308zM399 999q0 -80 56.5 -126t148.5 -46h205v191 q0 81 -57 130.5t-148 49.5t-148 -49.5t-57 -130.5v-19z" />
<glyph unicode=":" horiz-adv-x="503" d="M115 111h274v278h-274v-278zM115 573h274v279h-274v-279z" />
<glyph unicode=";" horiz-adv-x="569" d="M63 -299h224l145 299v279h-272v-279zM160 573h272v279h-272v-279z" />
<glyph unicode="&#x3c;" horiz-adv-x="890" d="M78 614v222l696 231v-240l-354 -100v-4l354 -98v-242z" />
<glyph unicode="=" horiz-adv-x="925" d="M115 418v239h696v-239h-696zM115 797v239h696v-239h-696z" />
<glyph unicode="&#x3e;" horiz-adv-x="890" d="M117 383l696 231v222l-696 231v-240l354 -100v-4l-354 -98v-242z" />
<glyph unicode="?" horiz-adv-x="1177" d="M66 940v78q0 192 136.5 314t372.5 122q238 0 383.5 -123t145.5 -313v-39q0 -159 -103 -273t-282 -149l-25 -149h-239v393h120q92 0 148.5 48.5t56.5 129.5v39q0 81 -57 130.5t-148 49.5t-146.5 -49t-55.5 -131v-78h-307zM414 0v279h323v-279h-323z" />
<glyph unicode="@" horiz-adv-x="1441" d="M100 303v418q0 56 8 108t28.5 106t51.5 99t80.5 85.5t113.5 68.5t152 44.5t193 16.5q146 0 259 -31.5t181.5 -82t112 -121.5t60 -141.5t16.5 -151.5v-545h-510l-35 64q-58 -74 -160 -74q-67 0 -112 29t-62.5 69t-17.5 88v266q0 76 47.5 131.5t144.5 55.5q112 0 170 -84 l21 72h155v-476h154v404q0 340 -424 340q-422 0 -422 -340v-418q0 -340 422 -340v-188q-105 0 -193 16.5t-152 44.5t-113.5 68.5t-80.5 85.5t-51.5 99t-28.5 106t-8 108zM645 383q0 -34 20 -56t58 -22q43 0 65.5 27.5t22.5 73.5v159q0 46 -22.5 73.5t-65.5 27.5 q-38 0 -58 -22t-20 -56v-205z" />
<glyph unicode="A" d="M0 0l473 1444h324l456 -1444h-342l-88 315h-393l-88 -315h-342zM502 571h250l-125 447z" />
<glyph unicode="B" horiz-adv-x="1265" d="M127 0v1434h555q219 0 341 -95t122 -278v-21q0 -195 -164 -288q105 -46 165 -130.5t60 -199.5v-23q0 -189 -128.5 -294t-366.5 -105h-584zM451 256h260q79 0 124.5 35.5t45.5 124.5v24q0 78 -48 118t-122 40h-260v-342zM451 856h215q67 0 110 32.5t43 108.5v37 q0 77 -43 110.5t-110 33.5h-215v-322z" />
<glyph unicode="C" horiz-adv-x="1226" d="M94 416q0 -190 145.5 -313t383.5 -123t384 123t146 313v96h-307v-96q0 -90 -62.5 -135t-160.5 -45q-95 0 -150 44t-55 136v602q0 81 57 130.5t148 49.5q93 0 158 -50t65 -130v-96h307v96q0 190 -146 313t-384 123t-383.5 -123t-145.5 -313v-602z" />
<glyph unicode="D" horiz-adv-x="1277" d="M127 0v1434h545q237 0 375.5 -122.5t138.5 -314.5v-561q0 -192 -138.5 -314t-375.5 -122h-545zM451 256h221q89 0 138.5 44t49.5 136v561q0 82 -51.5 131.5t-136.5 49.5h-221v-922z" />
<glyph unicode="E" horiz-adv-x="1124" d="M127 0v1434h932v-256h-608v-322h493v-258h-493v-342h608v-256h-932z" />
<glyph unicode="F" horiz-adv-x="1105" d="M127 0v1434h932v-256h-608v-381h493v-256h-493v-541h-324z" />
<glyph unicode="G" horiz-adv-x="1234" d="M94 416v602q0 190 145.5 313t383.5 123t384 -123t146 -313v-96h-307v96q0 80 -65 130t-158 50q-91 0 -148 -49.5t-57 -130.5v-602q0 -92 55 -136t150 -44q98 0 160.5 45t62.5 135v88h-207v256h514v-344q0 -190 -146 -313t-384 -123t-383.5 123t-145.5 313z" />
<glyph unicode="H" horiz-adv-x="1331" d="M127 0v1434h324v-578h430v578h325v-1434h-325v598h-430v-598h-324z" />
<glyph unicode="I" horiz-adv-x="577" d="M127 0v1434h324v-1434h-324z" />
<glyph unicode="J" horiz-adv-x="724" d="M39 0q112 0 191 8t154.5 32.5t120.5 67.5t72 115t27 174v1037h-323v-1012q0 -95 -51.5 -130.5t-190.5 -35.5v-256z" />
<glyph unicode="K" horiz-adv-x="1275" d="M127 0v1434h324v-635l454 635h375l-520 -691l540 -743h-393l-456 653v-653h-324z" />
<glyph unicode="L" horiz-adv-x="1071" d="M127 0v1434h324v-1178h587v-256h-911z" />
<glyph unicode="M" horiz-adv-x="1505" d="M127 0v1434h340l297 -551l291 551h323v-1434h-323v518q0 125 10 363l-193 -361h-256l-194 377q12 -228 12 -379v-518h-307z" />
<glyph unicode="N" horiz-adv-x="1372" d="M127 0v1434h340l483 -859q-10 222 -10 340v519h307v-1434h-325l-498 864q10 -228 10 -346v-518h-307z" />
<glyph unicode="O" horiz-adv-x="1245" d="M94 416q0 -190 145.5 -313t383.5 -123t384 123t146 313v602q0 190 -146 313t-384 123t-383.5 -123t-145.5 -313v-602zM418 416v602q0 81 57 130.5t148 49.5t147.5 -49.5t56.5 -130.5v-602q0 -81 -56.5 -130.5t-147.5 -49.5t-148 49.5t-57 130.5z" />
<glyph unicode="P" horiz-adv-x="1202" d="M127 0v1434h524q237 0 375.5 -122.5t138.5 -314.5v-71q0 -192 -138.5 -314.5t-375.5 -122.5h-200v-489h-324zM451 745h200q89 0 139 44.5t50 136.5v71q0 82 -52 131.5t-137 49.5h-200v-433z" />
<glyph unicode="Q" horiz-adv-x="1245" d="M94 416v602q0 190 145.5 313t383.5 123t384 -123t146 -313v-602q0 -154 -99.5 -267t-269.5 -153v-19q0 -80 49.5 -105.5t192.5 -25.5v-256q-113 0 -197 9.5t-156 33.5t-117 64.5t-70 104.5t-25 151v43q-170 40 -268.5 153t-98.5 267zM418 416q0 -81 57 -130.5t148 -49.5 t147.5 49.5t56.5 130.5v602q0 81 -56.5 130.5t-147.5 49.5t-148 -49.5t-57 -130.5v-602z" />
<glyph unicode="R" horiz-adv-x="1253" d="M127 0v1434h584q116 0 205 -31.5t142.5 -87.5t80 -126.5t26.5 -154.5v-22q0 -247 -219 -330q149 -65 187 -293l61 -389h-324l-53 365q-18 108 -62 144t-134 36h-170v-545h-324zM451 801h225q91 0 127.5 42t36.5 118v57q0 67 -38 113.5t-126 46.5h-225v-377z" />
<glyph unicode="S" horiz-adv-x="1191" d="M66 416q0 -191 142 -313.5t380 -122.5q240 0 388 114t148 301v21q0 98 -39.5 173.5t-102 120.5t-138.5 79.5t-152 59.5t-138.5 50t-102 62t-39.5 86v12q0 66 47.5 102.5t136.5 36.5q91 0 146 -49t55 -131v-96h307v96q0 192 -136 314t-372 122q-240 0 -375 -106t-135 -289 v-21q0 -77 24.5 -141t66 -108.5t95 -80.5t113 -61.5t118.5 -47.5t112.5 -43t95 -43.5t66 -53t24.5 -68.5v-12q0 -68 -56 -105.5t-149 -37.5q-98 0 -160.5 45t-62.5 135v96h-307v-96z" />
<glyph unicode="T" horiz-adv-x="1019" d="M45 1178v256h930v-256h-301v-1178h-324v1178h-305z" />
<glyph unicode="U" horiz-adv-x="1298" d="M119 416v1018h325v-1018q0 -92 55 -136t150 -44t150 44t55 136v1018h326v-1018q0 -190 -146.5 -313t-384.5 -123t-384 123t-146 313z" />
<glyph unicode="V" d="M8 1434h342l287 -1039l285 1039h340l-474 -1444h-323z" />
<glyph unicode="W" horiz-adv-x="1841" d="M10 1434h342l197 -977l215 977h332l209 -973l200 973h326l-377 -1444h-324l-208 946l-211 -946h-324z" />
<glyph unicode="X" horiz-adv-x="1224" d="M-14 0l454 727l-444 707h350l266 -445l267 445h350l-445 -707l455 -727h-350l-277 465l-276 -465h-350z" />
<glyph unicode="Y" horiz-adv-x="1234" d="M-6 1434h342l276 -613l293 613h342l-473 -904v-530h-323v530z" />
<glyph unicode="Z" horiz-adv-x="1126" d="M59 0v256l621 922h-600v256h975v-256l-619 -922h629v-256h-1006z" />
<glyph unicode="[" horiz-adv-x="684" d="M135 -307v2048h496v-189h-273v-1671h273v-188h-496z" />
<glyph unicode="\" horiz-adv-x="1030" d="M43 1434h164l778 -1434h-164z" />
<glyph unicode="]" horiz-adv-x="684" d="M53 -119h275v1671h-275v189h498v-2048h-498v188z" />
<glyph unicode="^" horiz-adv-x="1030" d="M197 594l198 287h240l199 -287h-234l-86 131l-86 -131h-231z" />
<glyph unicode="_" horiz-adv-x="950" d="M127 -41h696v-240h-696v240z" />
<glyph unicode="`" horiz-adv-x="823" d="M197 1413h256l174 -287h-215z" />
<glyph unicode="a" horiz-adv-x="1038" d="M45 262v29q0 55 13.5 100t52.5 90.5t102 76t170 50t250 19.5v49q0 40 -13 67.5t-37 40t-48 17t-56 4.5q-144 0 -325 -86l-68 213q208 112 426 112q200 0 314 -85.5t114 -264.5v-694h-256l-33 125q-102 -145 -299 -145q-80 0 -142 26.5t-96.5 69t-51.5 90t-17 96.5z M352 322q0 -50 32.5 -80.5t94.5 -30.5q74 0 114 45t40 133v74q-87 0 -145.5 -11t-86.5 -30.5t-38.5 -40t-10.5 -47.5v-12z" />
<glyph unicode="b" horiz-adv-x="1077" d="M102 0h258l33 123q30 -43 70.5 -73.5t81.5 -44.5t72.5 -19.5t60.5 -5.5q85 0 149 27.5t99.5 73.5t53 99t17.5 111v442q0 58 -17.5 111t-53 99t-99.5 73.5t-149 27.5q-64 0 -137.5 -27.5t-130.5 -96.5v555h-308v-1475zM410 379v266q0 76 39 122t112 46q62 0 95.5 -36.5 t33.5 -92.5v-344q0 -55 -33.5 -92t-95.5 -37q-73 0 -112 46t-39 122z" />
<glyph unicode="c" horiz-adv-x="921" d="M74 362q0 -193 110.5 -287.5t317.5 -94.5q82 0 161.5 11.5t116.5 21.5t97 28l-35 231q-89 -33 -147.5 -47t-125.5 -14q-188 0 -188 186v230q0 186 188 186q67 0 125.5 -14t147.5 -47l35 231q-60 18 -97 28t-116.5 21.5t-161.5 11.5q-207 0 -317.5 -94.5t-110.5 -287.5 v-300z" />
<glyph unicode="d" horiz-adv-x="1077" d="M80 291v442q0 58 17.5 111t54 99t100 73.5t147.5 27.5q64 0 138 -27.5t131 -96.5v555h307v-1475h-256l-35 123q-30 -43 -70.5 -73.5t-81.5 -44.5t-72.5 -19.5t-60.5 -5.5q-84 0 -147.5 27.5t-100 73.5t-54 99t-17.5 111zM387 340q0 -55 33.5 -92t95.5 -37q73 0 112.5 46 t39.5 122v266q0 76 -39.5 122t-112.5 46q-62 0 -95.5 -36.5t-33.5 -92.5v-344z" />
<glyph unicode="e" horiz-adv-x="1007" d="M72 367v299q0 184 118.5 281t329.5 97q199 0 306.5 -93t107.5 -277v-252h-555v-47q0 -91 49.5 -127.5t144.5 -36.5q168 0 334 61l35 -231q-200 -61 -420 -61q-210 0 -330 97.5t-120 289.5zM379 621h283v71q0 58 -37 93.5t-105 35.5q-67 0 -104 -39t-37 -98v-63z" />
<glyph unicode="f" horiz-adv-x="686" d="M49 817h105v-817h307v817h194v207h-194v133q0 54 23 80.5t77 26.5q44 0 86 -11l19 222q-109 20 -211 20q-153 0 -227 -72.5t-74 -232.5v-166h-105v-207z" />
<glyph unicode="g" horiz-adv-x="1075" d="M78 332q0 -58 17.5 -111t54 -99.5t100 -74t147.5 -27.5q63 0 137.5 28t131.5 97v-176q0 -91 -53 -129.5t-148 -38.5q-163 0 -332 62l-35 -232q200 -61 408 -61q214 0 340.5 99t126.5 300v1055h-256l-35 -123q-30 43 -70.5 73.5t-81.5 44.5t-72.5 19.5t-60.5 5.5 q-84 0 -147.5 -27.5t-100 -73.5t-54 -99t-17.5 -111v-401zM385 381v303q0 56 33.5 92.5t95.5 36.5q73 0 112.5 -46t39.5 -122v-225q0 -76 -39.5 -122t-112.5 -46q-62 0 -95.5 37t-33.5 92z" />
<glyph unicode="h" horiz-adv-x="1095" d="M102 0h308v645q0 76 39 122t112 46q62 0 95.5 -36.5t33.5 -92.5v-684h307v733q0 58 -17.5 111t-53 99t-99.5 73.5t-149 27.5q-64 0 -137.5 -27.5t-130.5 -96.5v555h-308v-1475z" />
<glyph unicode="i" horiz-adv-x="514" d="M102 0h308v1024h-308v-1024zM102 1155h308v295h-308v-295z" />
<glyph unicode="j" horiz-adv-x="514" d="M-102 -410q109 -20 211 -20q153 0 227 72.5t74 232.5v1149h-308v-1116q0 -54 -23 -80.5t-77 -26.5q-44 0 -86 11zM102 1155h308v295h-308v-295z" />
<glyph unicode="k" horiz-adv-x="1126" d="M102 0v1475h308v-893l360 442h350l-409 -485l428 -539h-369l-360 459v-459h-308z" />
<glyph unicode="l" horiz-adv-x="514" d="M102 0h308v1475h-308v-1475z" />
<glyph unicode="m" horiz-adv-x="1685" d="M102 0v1024h258l33 -123q30 43 70.5 73.5t81.5 44.5t72.5 19.5t60.5 5.5q111 0 182.5 -44.5t106.5 -118.5q29 51 72 86t88.5 50.5t78.5 21t62 5.5q84 0 147.5 -27.5t99 -73.5t53 -99t17.5 -111v-733h-307v684q0 56 -33.5 92.5t-95.5 36.5q-73 0 -112.5 -46t-39.5 -122 v-645h-307v684q0 56 -33.5 92.5t-95.5 36.5q-73 0 -112 -46t-39 -122v-645h-308z" />
<glyph unicode="n" horiz-adv-x="1095" d="M102 0h308v645q0 76 39 122t112 46q62 0 95.5 -36.5t33.5 -92.5v-684h307v733q0 58 -17.5 111t-53 99t-99.5 73.5t-149 27.5q-29 0 -60.5 -5.5t-72.5 -19.5t-81.5 -44.5t-70.5 -73.5l-33 123h-258v-1024z" />
<glyph unicode="o" horiz-adv-x="1040" d="M72 358v308q0 184 118.5 281t329.5 97t330 -97t119 -281v-308q0 -184 -119 -281t-330 -97t-329.5 97t-118.5 281zM379 340q0 -59 37 -98t104 -39q68 0 105 39t37 98v344q0 59 -37 98t-105 39q-67 0 -104 -39t-37 -98v-344z" />
<glyph unicode="p" horiz-adv-x="1077" d="M102 -410v1434h258l33 -123q30 43 70.5 73.5t81.5 44.5t72.5 19.5t60.5 5.5q85 0 149 -27.5t99.5 -73.5t53 -99t17.5 -111v-442q0 -58 -17.5 -111t-53 -99t-99.5 -73.5t-149 -27.5q-64 0 -137.5 27.5t-130.5 96.5v-514h-308zM410 379q0 -76 39 -122t112 -46q62 0 95.5 37 t33.5 92v344q0 56 -33.5 92.5t-95.5 36.5q-73 0 -112 -46t-39 -122v-266z" />
<glyph unicode="q" horiz-adv-x="1077" d="M80 291q0 -58 17.5 -111t54 -99t100 -73.5t147.5 -27.5q64 0 138 27.5t131 96.5v-514h307v1434h-256l-35 -123q-30 43 -70.5 73.5t-81.5 44.5t-72.5 19.5t-60.5 5.5q-84 0 -147.5 -27.5t-100 -73.5t-54 -99t-17.5 -111v-442zM387 340v344q0 56 33.5 92.5t95.5 36.5 q73 0 112.5 -46t39.5 -122v-266q0 -76 -39.5 -122t-112.5 -46q-62 0 -95.5 37t-33.5 92z" />
<glyph unicode="r" horiz-adv-x="716" d="M102 0h308v596q0 149 268 149v299q-28 0 -64.5 -9.5t-81 -30.5t-82.5 -64.5t-57 -103.5l-33 188h-258v-1024z" />
<glyph unicode="s" horiz-adv-x="974" d="M55 41q200 -61 422 -61q209 0 328 85t119 224v28q0 68 -23.5 120.5t-61.5 83.5t-87 54.5t-99.5 35t-99.5 24.5t-87 23.5t-61.5 30.5t-23.5 48v8q0 76 137 76q70 0 164 -19.5t174 -49.5l37 231q-60 18 -98 28t-121 21.5t-172 11.5q-216 0 -326 -81t-110 -213v-29 q0 -77 30 -134.5t77.5 -89.5t105.5 -54t116 -35t105.5 -26t77.5 -33.5t30 -51.5v-8q0 -36 -33.5 -61t-113.5 -25q-73 0 -178.5 20t-184.5 49z" />
<glyph unicode="t" horiz-adv-x="694" d="M43 817v207h104v205h308v-205h184v-207h-184v-500q0 -54 23 -80t77 -26q48 0 86 10l18 -221q-109 -20 -210 -20q-153 0 -227.5 72.5t-74.5 232.5v532h-104z" />
<glyph unicode="u" horiz-adv-x="1095" d="M98 291q0 -58 18 -111t54 -99t100 -73.5t148 -27.5q28 0 60 5.5t72.5 19.5t81 44.5t70.5 73.5l35 -123h256v1024h-307v-645q0 -76 -38.5 -122t-110.5 -46q-63 0 -97 36.5t-34 92.5v684h-308v-733z" />
<glyph unicode="v" horiz-adv-x="991" d="M8 1024h307l185 -690l184 690h299l-342 -1034h-299z" />
<glyph unicode="w" horiz-adv-x="1439" d="M16 1024h299l127 -700l119 700h307l127 -696l129 696h299l-256 -1034h-333l-115 680l-115 -680h-332z" />
<glyph unicode="x" horiz-adv-x="978" d="M4 0l334 512l-334 512h307l185 -285l184 285h299l-342 -512l342 -512h-299l-184 285l-185 -285h-307z" />
<glyph unicode="y" horiz-adv-x="987" d="M-2 -410l22 230q24 -7 75 -13t71 -6q84 0 119.5 26.5t66.5 102.5l23 60h-35l-334 1034h307l197 -680l172 680h299l-354 -1065q-39 -120 -81 -196.5t-96 -119t-114 -58t-146 -15.5q-81 0 -192 20z" />
<glyph unicode="z" horiz-adv-x="935" d="M51 0v207l477 610h-448v207h782v-207l-479 -610h500v-207h-832z" />
<glyph unicode="{" horiz-adv-x="638" d="M49 621q31 -4 53 -11t38 -14t26 -22t15.5 -26t8 -35t3 -41t0.5 -52q0 -60 -10.5 -212.5t-10.5 -215.5q0 -60 13 -107.5t33 -78.5t54 -53t64.5 -33.5t77.5 -17.5t80 -7.5t84 -1.5v188q-90 0 -136.5 34t-46.5 116q0 62 10.5 219t10.5 221q0 60 -13 102t-41.5 69t-62 43 t-86.5 30v4q53 14 86.5 30t62 43t41.5 69t13 102q0 64 -10.5 221t-10.5 219q0 82 46.5 115.5t136.5 33.5v189q-51 0 -84 -1.5t-80 -7.5t-77.5 -17.5t-64.5 -33.5t-54 -53t-33 -78.5t-13 -107.5q0 -63 10.5 -215.5t10.5 -212.5q0 -35 -0.5 -52t-3 -41t-8 -35t-15.5 -26 t-26 -22t-38 -14t-53 -11v-192z" />
<glyph unicode="|" horiz-adv-x="432" d="M135 -307v2048h162v-2048h-162z" />
<glyph unicode="}" horiz-adv-x="638" d="M61 -119q90 0 135.5 34t45.5 116q0 62 -10.5 219t-10.5 221q0 60 13.5 102t42 69t62 42.5t85.5 30.5v4q-52 15 -85.5 30.5t-62 42.5t-42 69t-13.5 102q0 64 10.5 221t10.5 219q0 82 -45.5 115.5t-135.5 33.5v189q51 0 84 -1.5t79.5 -7.5t77 -17.5t64.5 -33.5t53.5 -53 t32.5 -78.5t13 -107.5q0 -63 -10.5 -215.5t-10.5 -212.5q0 -35 0.5 -52t3 -41t8 -35t15.5 -26t26 -22t38 -14t53 -11v-192q-31 -4 -53 -11t-38 -14t-26 -22t-15.5 -26t-8 -35t-3 -41t-0.5 -52q0 -60 10.5 -212.5t10.5 -215.5q0 -60 -13 -107.5t-32.5 -78.5t-53.5 -53 t-64.5 -33.5t-77 -17.5t-79.5 -7.5t-84 -1.5v188z" />
<glyph unicode="~" horiz-adv-x="856" d="M100 604q0 256 191 256q57 0 136 -32.5t99 -32.5q62 0 62 65h172q0 -256 -191 -256q-57 0 -136 33t-99 33q-60 0 -60 -66h-174z" />
<glyph unicode="&#xa1;" horiz-adv-x="546" d="M111 -131v-279h325v279l-51 713h-223zM111 745v279h325v-279h-325z" />
<glyph unicode="&#xa2;" horiz-adv-x="974" d="M88 362v300q0 342 348 378v189h162v-187q24 -2 48.5 -5t43 -5.5t41.5 -7.5t36.5 -7.5t36 -8.5t30.5 -8.5t30.5 -9t26.5 -7.5l-35 -231q-90 33 -147.5 47t-124.5 14q-189 0 -189 -186v-230q0 -186 189 -186q67 0 124.5 14t147.5 47l35 -231q-4 -1 -26.5 -7.5t-30.5 -9 t-30.5 -8.5t-36 -8.5t-36.5 -7.5t-41.5 -7.5t-43 -5.5t-48.5 -5v-187h-162v189q-348 36 -348 378z" />
<glyph unicode="&#xa3;" horiz-adv-x="1300" d="M94 479v256h86v324q0 183 135 289t373 106q236 0 373 -122t137 -314v-96h-307v96q0 81 -56 130.5t-147 49.5q-88 0 -136 -37t-48 -102v-324h311v-256h-311v-223h710v-256h-1116v256h82v223h-86z" />
<glyph unicode="&#xa4;" horiz-adv-x="1333" d="M76 483v174h106v131h-106v173h106v57q0 190 146.5 313t384.5 123q236 0 382 -123t146 -313v-96h-307v96q0 80 -64.5 130t-156.5 50t-149.5 -49.5t-57.5 -130.5v-57h180v-173h-180v-131h180v-174h-180v-67q0 -91 55.5 -135.5t151.5 -44.5t158.5 45t62.5 135v96h307v-96 q0 -190 -146 -313t-382 -123q-238 0 -384.5 123t-146.5 313v67h-106z" />
<glyph unicode="&#xa5;" horiz-adv-x="1347" d="M47 1434h342l279 -611l290 611h342l-428 -818h185v-239h-230v-377h-323v377h-228v239h185z" />
<glyph unicode="&#xa6;" horiz-adv-x="436" d="M137 -307v921h162v-921h-162zM137 819v922h162v-922h-162z" />
<glyph unicode="&#xa7;" horiz-adv-x="1228" d="M102 537v155h1022v-315q0 -183 -135 -289t-373 -106q-236 0 -373 122t-137 314v43h308v-43q0 -82 55.5 -131t146.5 -49q88 0 136.5 37t48.5 102v160h-699zM102 745v314q0 183 135 289t375 106q236 0 372 -122t136 -314v-45h-307v45q0 82 -55 131t-146 49 q-89 0 -136.5 -36.5t-47.5 -102.5v-160h696v-154h-1022z" />
<glyph unicode="&#xa8;" horiz-adv-x="1148" d="M197 1155h307v295h-307v-295zM643 1155h307v295h-307v-295z" />
<glyph unicode="&#xa9;" horiz-adv-x="1593" d="M80 717q0 204 93 372.5t258 266.5t366 98q151 0 284.5 -57.5t228 -156t149 -235t54.5 -288.5q0 -206 -93 -375t-257 -265.5t-366 -96.5q-151 0 -284.5 57t-228 154.5t-149.5 234.5t-55 291zM141 717q0 -152 52 -280.5t141.5 -214t209 -133.5t253.5 -48q180 0 327.5 81 t236.5 237t89 358q0 201 -89 356t-236.5 236.5t-327.5 81.5q-134 0 -253.5 -48t-209 -134t-141.5 -213.5t-52 -278.5zM477 537q0 -114 88 -188.5t232 -74.5q143 0 230 74.5t87 188.5v57h-186v-57q0 -54 -36.5 -80.5t-94.5 -26.5q-57 0 -90 26t-33 81v360q0 49 34 78t89 29 q56 0 93.5 -29.5t37.5 -77.5v-57h186v57q0 114 -87 188t-230 74q-144 0 -232 -74t-88 -188v-360z" />
<glyph unicode="&#xaa;" horiz-adv-x="772" d="M111 602v137h538v-137h-538zM111 985v16q0 42 14.5 75t50 63.5t108.5 47.5t179 17v29q0 76 -92 76q-84 0 -195 -52l-41 129q126 68 256 68q121 0 189.5 -51.5t68.5 -159.5v-416h-155l-21 74q-60 -86 -178 -86q-92 0 -138 52t-46 118zM297 1020q0 -29 18.5 -47.5 t55.5 -18.5q44 0 68 27.5t24 79.5v45q-97 -1 -131.5 -22.5t-34.5 -55.5v-8z" />
<glyph unicode="&#xab;" horiz-adv-x="1269" d="M55 399v224l541 385v-258l-252 -236v-4l252 -236v-258zM631 399v224l540 385v-258l-249 -236v-4l249 -236v-258z" />
<glyph unicode="&#xac;" horiz-adv-x="1044" d="M102 606v242h826v-442h-326v200h-500z" />
<glyph unicode="&#xad;" horiz-adv-x="909" d="M106 391v242h697v-242h-697z" />
<glyph unicode="&#xae;" horiz-adv-x="1593" d="M80 717q0 204 93 372.5t258 266.5t366 98q151 0 284.5 -57.5t228 -156t149 -235t54.5 -288.5q0 -206 -93 -375t-257 -265.5t-366 -96.5q-151 0 -284.5 57t-228 154.5t-149.5 234.5t-55 291zM141 717q0 -152 52 -280.5t141.5 -214t209 -133.5t253.5 -48q180 0 327.5 81 t236.5 237t89 358q0 201 -89 356t-236.5 236.5t-327.5 81.5q-134 0 -253.5 -48t-209 -134t-141.5 -213.5t-52 -278.5zM506 285v860h352q137 0 204.5 -67.5t67.5 -172.5v-14q0 -148 -131 -197q91 -41 113 -176l37 -233h-197l-30 219q-10 64 -37 85t-82 21h-101v-325h-196z M702 766h136q98 0 98 94v35q0 39 -23 66.5t-75 27.5h-136v-223z" />
<glyph unicode="&#xaf;" horiz-adv-x="1116" d="M197 1157v191h723v-191h-723z" />
<glyph unicode="&#xb0;" horiz-adv-x="540" d="M76 1260q0 80 56.5 137t137.5 57q80 0 137.5 -57.5t57.5 -136.5q0 -81 -57.5 -138t-137.5 -57q-82 0 -138 56.5t-56 138.5zM182 1260q0 -40 24.5 -66.5t63.5 -26.5q38 0 63 26.5t25 66.5q0 38 -25 64t-63 26q-39 0 -63.5 -25.5t-24.5 -64.5z" />
<glyph unicode="&#xb1;" horiz-adv-x="935" d="M102 264v240h732v-240h-732zM102 797v239h246v246h240v-246h246v-239h-246v-244h-240v244h-246z" />
<glyph unicode="&#xb2;" horiz-adv-x="759" d="M59 834v157q0 59 24.5 108t63 82.5t85.5 61t94.5 50t86 43.5t63 46.5t24.5 55.5v6q0 49 -34 77.5t-89 28.5t-88 -28.5t-33 -77.5v-47h-184v47q0 115 81.5 188.5t223.5 73.5q143 0 230 -74t87 -188v-12q0 -59 -24.5 -108t-63 -81.5t-85.5 -60t-94 -48.5t-85.5 -41t-63 -45 t-24.5 -53v-6h440v-155h-635z" />
<glyph unicode="&#xb3;" horiz-adv-x="753" d="M55 1083v47h195v-47q0 -49 34 -77.5t89 -28.5t89 27t34 73v17q0 47 -34 74.5t-89 27.5h-62v156h62q55 0 88 26.5t33 71.5v4q0 46 -33 71t-88 25t-88 -28.5t-33 -77.5v-47h-184v47q0 115 81.5 188.5t223.5 73.5t221.5 -63.5t79.5 -169.5v-9q0 -128 -107 -188 q125 -61 125 -193v-20q0 -112 -86.5 -177t-232.5 -65q-143 0 -230.5 74t-87.5 188z" />
<glyph unicode="&#xb4;" horiz-adv-x="823" d="M197 1126h215l215 287h-256z" />
<glyph unicode="&#xb6;" horiz-adv-x="1343" d="M104 436v561q0 192 138.5 314.5t375.5 122.5h121v-1434h-121q-237 0 -375.5 122t-138.5 314zM838 0v1434h428v-189h-205v-1057h205v-188h-428z" />
<glyph unicode="&#xb7;" horiz-adv-x="503" d="M115 387h274v279h-274v-279z" />
<glyph unicode="&#xb8;" horiz-adv-x="868" d="M197 -430l34 121q88 -31 170 -31q80 0 80 61v11q0 31 -18 45t-66 14h-73v225h120v-96h21q100 0 152.5 -44.5t52.5 -127.5v-27q0 -77 -60 -134.5t-174 -57.5q-57 0 -130 13t-109 28z" />
<glyph unicode="&#xb9;" horiz-adv-x="636" d="M59 834v155h179v549h-179v156h373v-705h176v-155h-549z" />
<glyph unicode="&#xba;" horiz-adv-x="778" d="M119 602v137h538v-137h-538zM119 1042v185q0 111 71.5 169t198.5 58t197.5 -58t70.5 -169v-185q0 -111 -70.5 -169t-197.5 -58t-198.5 58t-71.5 169zM305 1032q0 -36 21.5 -59t62.5 -23q40 0 61 23t21 59v205q0 36 -21 59t-61 23q-41 0 -62.5 -23t-21.5 -59v-205z" />
<glyph unicode="&#xbb;" horiz-adv-x="1269" d="M96 16l543 383v224l-543 385v-258l252 -236v-4l-252 -236v-258zM674 16l540 383v224l-540 385v-258l252 -236v-4l-252 -236v-258z" />
<glyph unicode="&#xbc;" horiz-adv-x="1732" d="M59 573v156h179v549h-179v156h373v-705h176v-156h-549zM352 0l778 1434h164l-778 -1434h-164zM975 193v155l399 514v-2h197v-512h125v-155h-125v-193h-197v193h-399zM1186 348h188v236z" />
<glyph unicode="&#xbd;" horiz-adv-x="1767" d="M59 573v156h179v549h-179v156h373v-705h176v-156h-549zM352 0l778 1434h164l-778 -1434h-164zM1067 0v158q0 59 24.5 108t63 82t85.5 61t94 50t85.5 43t63 46.5t24.5 55.5v6q0 49 -34 78t-89 29q-54 0 -87 -29t-33 -78v-47h-185v47q0 115 81.5 188.5t223.5 73.5 q143 0 230.5 -74t87.5 -188v-12q0 -68 -32.5 -123t-81.5 -88t-106 -63t-106 -51t-81.5 -50t-32.5 -61v-6h440v-156h-635z" />
<glyph unicode="&#xbe;" horiz-adv-x="1849" d="M55 823v47h195v-47q0 -49 34 -77.5t89 -28.5t89 27t34 73v17q0 47 -34 74.5t-89 27.5h-62v156h62q55 0 88 26.5t33 71.5v4q0 46 -33 71t-88 25t-88 -28.5t-33 -77.5v-47h-184v47q0 115 81.5 188.5t223.5 73.5t221.5 -64t79.5 -170v-8q0 -128 -107 -188q125 -61 125 -193 v-20q0 -112 -86.5 -177t-232.5 -65q-143 0 -230.5 74t-87.5 188zM469 0l778 1434h164l-778 -1434h-164zM1092 193v155l399 514v-2h197v-512h124v-155h-124v-193h-197v193h-399zM1303 348h188v236z" />
<glyph unicode="&#xbf;" horiz-adv-x="1163" d="M68 6v39q0 157 103.5 272t279.5 150l26 149h240v-393h-119q-92 0 -148.5 -48.5t-56.5 -129.5v-39q0 -81 57 -130.5t148 -49.5t146 49t55 131v78h307v-78q0 -192 -136 -314t-372 -122q-238 0 -384 123t-146 313zM436 745v279h324v-279h-324z" />
<glyph unicode="&#xc0;" d="M0 0l473 1444h324l456 -1444h-342l-88 315h-393l-88 -315h-342zM313 1823h256l174 -287h-215zM502 571h250l-125 447z" />
<glyph unicode="&#xc1;" d="M0 0l473 1444h324l456 -1444h-342l-88 315h-393l-88 -315h-342zM502 571h250l-125 447zM520 1536h215l215 287h-256z" />
<glyph unicode="&#xc2;" d="M0 0l473 1444h324l456 -1444h-342l-88 315h-393l-88 -315h-342zM313 1536l199 287h240l198 -287h-233l-86 131l-86 -131h-232zM502 571h250l-125 447z" />
<glyph unicode="&#xc3;" d="M0 0l473 1444h324l456 -1444h-342l-88 315h-393l-88 -315h-342zM303 1540q0 254 191 254q57 0 136 -32.5t99 -32.5q59 0 59 65h173q0 -130 -46.5 -192t-142.5 -62q-57 0 -136 33t-99 33q-62 0 -62 -66h-172zM502 571h250l-125 447z" />
<glyph unicode="&#xc4;" d="M0 0l473 1444h324l456 -1444h-342l-88 315h-393l-88 -315h-342zM254 1565h307v295h-307v-295zM502 571h250l-125 447zM700 1565h308v295h-308v-295z" />
<glyph unicode="&#xc5;" d="M0 0l473 1444h324l456 -1444h-342l-88 315h-393l-88 -315h-342zM375 1700q0 184 258 184q256 0 256 -184t-256 -184q-258 0 -258 184zM502 571h250l-125 447zM547 1700q0 -38 22 -59t64 -21q84 0 84 80t-84 80q-42 0 -64 -21t-22 -59z" />
<glyph unicode="&#xc6;" horiz-adv-x="1753" d="M-6 0l594 1434h1098v-256h-607v-322h494v-258h-494v-342h607v-256h-932v315h-295l-123 -315h-342zM559 571h195v496z" />
<glyph unicode="&#xc7;" horiz-adv-x="1226" d="M94 416v602q0 190 145.5 313t383.5 123t384 -123t146 -313v-96h-307v96q0 80 -65 130t-158 50q-91 0 -148 -49.5t-57 -130.5v-602q0 -92 55 -136t150 -44q98 0 160.5 45t62.5 135v96h307v-96q0 -176 -128 -296.5t-341 -137.5v-78h21q100 0 152 -44.5t52 -127.5v-27 q0 -77 -59.5 -134.5t-173.5 -57.5q-57 0 -130.5 13t-109.5 28l35 120q85 -30 170 -30q80 0 80 61v10q0 31 -18.5 45.5t-65.5 14.5h-74v207q-213 17 -341 137.5t-128 296.5z" />
<glyph unicode="&#xc8;" horiz-adv-x="1124" d="M127 0v1434h932v-256h-608v-322h493v-258h-493v-342h608v-256h-932zM264 1823h256l174 -287h-215z" />
<glyph unicode="&#xc9;" horiz-adv-x="1124" d="M127 0v1434h932v-256h-608v-322h493v-258h-493v-342h608v-256h-932zM471 1536h215l215 287h-256z" />
<glyph unicode="&#xca;" horiz-adv-x="1124" d="M127 0v1434h932v-256h-608v-322h493v-258h-493v-342h608v-256h-932zM264 1536l199 287h239l199 -287h-233l-86 131l-86 -131h-232z" />
<glyph unicode="&#xcb;" horiz-adv-x="1124" d="M127 0v1434h932v-256h-608v-322h493v-258h-493v-342h608v-256h-932zM207 1565h307v295h-307v-295zM653 1565h308v295h-308v-295z" />
<glyph unicode="&#xcc;" horiz-adv-x="577" d="M-31 1823h256l174 -287h-215zM127 0v1434h324v-1434h-324z" />
<glyph unicode="&#xcd;" horiz-adv-x="577" d="M127 0v1434h324v-1434h-324zM176 1536h215l215 287h-256z" />
<glyph unicode="&#xce;" horiz-adv-x="577" d="M-31 1536l199 287h240l198 -287h-233l-86 131l-86 -131h-232zM127 0v1434h324v-1434h-324z" />
<glyph unicode="&#xcf;" horiz-adv-x="577" d="M-90 1565h307v295h-307v-295zM127 0v1434h324v-1434h-324zM356 1565h308v295h-308v-295z" />
<glyph unicode="&#xd0;" horiz-adv-x="1306" d="M20 598v258h136v578h544q237 0 375.5 -122.5t138.5 -314.5v-561q0 -192 -138.5 -314t-375.5 -122h-544v598h-136zM479 256h221q89 0 139 44t50 136v561q0 82 -52 131.5t-137 49.5h-221v-322h174v-258h-174v-342z" />
<glyph unicode="&#xd1;" horiz-adv-x="1372" d="M127 0v1434h340l483 -859q-10 222 -10 340v519h307v-1434h-325l-498 864q10 -228 10 -346v-518h-307zM356 1540q0 254 191 254q57 0 136 -32.5t99 -32.5q60 0 60 65h172q0 -130 -46.5 -192t-142.5 -62q-57 0 -136 33t-99 33q-62 0 -62 -66h-172z" />
<glyph unicode="&#xd2;" horiz-adv-x="1245" d="M94 416q0 -190 145.5 -313t383.5 -123t384 123t146 313v602q0 190 -146 313t-384 123t-383.5 -123t-145.5 -313v-602zM305 1823h256l174 -287h-215zM418 416v602q0 81 57 130.5t148 49.5t147.5 -49.5t56.5 -130.5v-602q0 -81 -56.5 -130.5t-147.5 -49.5t-148 49.5 t-57 130.5z" />
<glyph unicode="&#xd3;" horiz-adv-x="1245" d="M94 416q0 -190 145.5 -313t383.5 -123t384 123t146 313v602q0 190 -146 313t-384 123t-383.5 -123t-145.5 -313v-602zM418 416v602q0 81 57 130.5t148 49.5t147.5 -49.5t56.5 -130.5v-602q0 -81 -56.5 -130.5t-147.5 -49.5t-148 49.5t-57 130.5zM512 1536h215l215 287 h-256z" />
<glyph unicode="&#xd4;" horiz-adv-x="1245" d="M94 416q0 -190 145.5 -313t383.5 -123t384 123t146 313v602q0 190 -146 313t-384 123t-383.5 -123t-145.5 -313v-602zM305 1536l199 287h239l199 -287h-233l-86 131l-86 -131h-232zM418 416v602q0 81 57 130.5t148 49.5t147.5 -49.5t56.5 -130.5v-602q0 -81 -56.5 -130.5 t-147.5 -49.5t-148 49.5t-57 130.5z" />
<glyph unicode="&#xd5;" horiz-adv-x="1245" d="M94 416q0 -190 145.5 -313t383.5 -123t384 123t146 313v602q0 190 -146 313t-384 123t-383.5 -123t-145.5 -313v-602zM293 1540q0 254 190 254q57 0 136.5 -32.5t99.5 -32.5q59 0 59 65h172q0 -130 -46 -192t-142 -62q-57 0 -136.5 33t-99.5 33q-61 0 -61 -66h-172z M418 416v602q0 81 57 130.5t148 49.5t147.5 -49.5t56.5 -130.5v-602q0 -81 -56.5 -130.5t-147.5 -49.5t-148 49.5t-57 130.5z" />
<glyph unicode="&#xd6;" horiz-adv-x="1245" d="M94 416q0 -190 145.5 -313t383.5 -123t384 123t146 313v602q0 190 -146 313t-384 123t-383.5 -123t-145.5 -313v-602zM246 1565h307v295h-307v-295zM418 416v602q0 81 57 130.5t148 49.5t147.5 -49.5t56.5 -130.5v-602q0 -81 -56.5 -130.5t-147.5 -49.5t-148 49.5 t-57 130.5zM692 1565h307v295h-307v-295z" />
<glyph unicode="&#xd7;" horiz-adv-x="927" d="M78 510l606 604l168 -170l-606 -604z" />
<glyph unicode="&#xd8;" horiz-adv-x="1245" d="M94 416v602q0 190 145.5 313t383.5 123q181 0 313 -74l55 95h162l-106 -183q106 -112 106 -274v-602q0 -190 -146 -313t-384 -123q-171 0 -299 67l-52 -88h-161l98 170q-115 118 -115 287zM418 487l373 641q-60 70 -168 70q-91 0 -148 -49.5t-57 -130.5v-531zM467 293 q54 -57 156 -57q91 0 147.5 49.5t56.5 130.5v497z" />
<glyph unicode="&#xd9;" horiz-adv-x="1298" d="M119 416v1018h325v-1018q0 -92 55 -136t150 -44t150 44t55 136v1018h326v-1018q0 -190 -146.5 -313t-384.5 -123t-384 123t-146 313zM332 1823h256l174 -287h-215z" />
<glyph unicode="&#xda;" horiz-adv-x="1298" d="M119 416v1018h325v-1018q0 -92 55 -136t150 -44t150 44t55 136v1018h326v-1018q0 -190 -146.5 -313t-384.5 -123t-384 123t-146 313zM537 1536h215l215 287h-256z" />
<glyph unicode="&#xdb;" horiz-adv-x="1298" d="M119 416v1018h325v-1018q0 -92 55 -136t150 -44t150 44t55 136v1018h326v-1018q0 -190 -146.5 -313t-384.5 -123t-384 123t-146 313zM332 1536l198 287h240l199 -287h-234l-86 131l-86 -131h-231z" />
<glyph unicode="&#xdc;" horiz-adv-x="1298" d="M119 416v1018h325v-1018q0 -92 55 -136t150 -44t150 44t55 136v1018h326v-1018q0 -190 -146.5 -313t-384.5 -123t-384 123t-146 313zM272 1565h308v295h-308v-295zM719 1565h307v295h-307v-295z" />
<glyph unicode="&#xdd;" horiz-adv-x="1234" d="M-6 1434h342l276 -613l293 613h342l-473 -904v-530h-323v530zM506 1536h215l215 287h-256z" />
<glyph unicode="&#xde;" horiz-adv-x="1202" d="M127 0v1434h324v-234h200q237 0 375.5 -122t138.5 -314v-72q0 -192 -138.5 -314t-375.5 -122h-200v-256h-324zM451 512h200q89 0 139 44t50 136v72q0 81 -52 129.5t-137 48.5h-200v-430z" />
<glyph unicode="&#xdf;" horiz-adv-x="1220" d="M49 817v207h105v92q0 185 119 282t335 97q218 0 337.5 -97t119.5 -282v-86q0 -179 -119 -262q105 -44 163 -130t58 -208v-31q0 -186 -120 -292.5t-324 -106.5h-191v256h175q79 0 124.5 35.5t45.5 124.5v30q0 78 -48 119t-122 41h-175v256h72q67 0 110.5 33.5t43.5 110.5 v129q0 60 -38 98.5t-112 38.5q-73 0 -110 -38.5t-37 -98.5v-1135h-307v817h-105z" />
<glyph unicode="&#xe0;" horiz-adv-x="1038" d="M45 262v29q0 55 13.5 100t52.5 90.5t102 76t170 50t250 19.5v49q0 40 -13 67.5t-37 40t-48 17t-56 4.5q-144 0 -325 -86l-68 213q208 112 426 112q200 0 314 -85.5t114 -264.5v-694h-256l-33 125q-102 -145 -299 -145q-80 0 -142 26.5t-96.5 69t-51.5 90t-17 96.5z M195 1413h256l174 -287h-215zM352 322q0 -50 32.5 -80.5t94.5 -30.5q74 0 114 45t40 133v74q-87 0 -145.5 -11t-86.5 -30.5t-38.5 -40t-10.5 -47.5v-12z" />
<glyph unicode="&#xe1;" horiz-adv-x="1038" d="M45 262v29q0 55 13.5 100t52.5 90.5t102 76t170 50t250 19.5v49q0 40 -13 67.5t-37 40t-48 17t-56 4.5q-144 0 -325 -86l-68 213q208 112 426 112q200 0 314 -85.5t114 -264.5v-694h-256l-33 125q-102 -145 -299 -145q-80 0 -142 26.5t-96.5 69t-51.5 90t-17 96.5z M352 322q0 -50 32.5 -80.5t94.5 -30.5q74 0 114 45t40 133v74q-87 0 -145.5 -11t-86.5 -30.5t-38.5 -40t-10.5 -47.5v-12zM399 1126h215l215 287h-256z" />
<glyph unicode="&#xe2;" horiz-adv-x="1038" d="M45 262v29q0 55 13.5 100t52.5 90.5t102 76t170 50t250 19.5v49q0 40 -13 67.5t-37 40t-48 17t-56 4.5q-144 0 -325 -86l-68 213q208 112 426 112q200 0 314 -85.5t114 -264.5v-694h-256l-33 125q-102 -145 -299 -145q-80 0 -142 26.5t-96.5 69t-51.5 90t-17 96.5z M195 1126l198 287h240l198 -287h-233l-86 131l-86 -131h-231zM352 322q0 -50 32.5 -80.5t94.5 -30.5q74 0 114 45t40 133v74q-87 0 -145.5 -11t-86.5 -30.5t-38.5 -40t-10.5 -47.5v-12z" />
<glyph unicode="&#xe3;" horiz-adv-x="1038" d="M45 262v29q0 55 13.5 100t52.5 90.5t102 76t170 50t250 19.5v49q0 40 -13 67.5t-37 40t-48 17t-56 4.5q-144 0 -325 -86l-68 213q208 112 426 112q200 0 314 -85.5t114 -264.5v-694h-256l-33 125q-102 -145 -299 -145q-80 0 -142 26.5t-96.5 69t-51.5 90t-17 96.5z M182 1130q0 254 191 254q57 0 136 -32.5t99 -32.5q60 0 60 65h172q0 -130 -46.5 -192t-142.5 -62q-57 0 -136 33t-99 33q-62 0 -62 -66h-172zM352 322q0 -50 32.5 -80.5t94.5 -30.5q74 0 114 45t40 133v74q-87 0 -145.5 -11t-86.5 -30.5t-38.5 -40t-10.5 -47.5v-12z" />
<glyph unicode="&#xe4;" horiz-adv-x="1038" d="M45 262v29q0 55 13.5 100t52.5 90.5t102 76t170 50t250 19.5v49q0 40 -13 67.5t-37 40t-48 17t-56 4.5q-144 0 -325 -86l-68 213q208 112 426 112q200 0 314 -85.5t114 -264.5v-694h-256l-33 125q-102 -145 -299 -145q-80 0 -142 26.5t-96.5 69t-51.5 90t-17 96.5z M135 1155h307v295h-307v-295zM352 322q0 -50 32.5 -80.5t94.5 -30.5q74 0 114 45t40 133v74q-87 0 -145.5 -11t-86.5 -30.5t-38.5 -40t-10.5 -47.5v-12zM582 1155h307v295h-307v-295z" />
<glyph unicode="&#xe5;" horiz-adv-x="1038" d="M45 262v29q0 55 13.5 100t52.5 90.5t102 76t170 50t250 19.5v49q0 40 -13 67.5t-37 40t-48 17t-56 4.5q-144 0 -325 -86l-68 213q208 112 426 112q200 0 314 -85.5t114 -264.5v-694h-256l-33 125q-102 -145 -299 -145q-80 0 -142 26.5t-96.5 69t-51.5 90t-17 96.5z M254 1290q0 185 258 185q256 0 256 -185q0 -184 -256 -184q-258 0 -258 184zM352 322q0 -50 32.5 -80.5t94.5 -30.5q74 0 114 45t40 133v74q-87 0 -145.5 -11t-86.5 -30.5t-38.5 -40t-10.5 -47.5v-12zM426 1290q0 -38 22 -59t64 -21q84 0 84 80t-84 80q-42 0 -64 -21 t-22 -59z" />
<glyph unicode="&#xe6;" horiz-adv-x="1566" d="M45 262v27q0 55 13.5 100t52.5 90.5t102 76.5t170 50.5t250 20.5v49q0 40 -13 67.5t-37 40t-48 17t-56 4.5q-144 0 -325 -86l-68 213q208 112 426 112q183 0 287 -65q112 65 282 65q199 0 306.5 -93t107.5 -277v-211h-555v-88q0 -91 50 -127.5t145 -36.5q167 0 333 61 l35 -231q-200 -61 -420 -61q-144 0 -249.5 47t-155.5 139q-99 -186 -326 -186q-80 0 -142 26.5t-96.5 69t-51.5 90t-17 96.5zM352 322q0 -50 32.5 -80.5t94.5 -30.5q74 0 114 45t40 133v74q-87 -1 -145.5 -12t-86.5 -31t-38.5 -40.5t-10.5 -47.5v-10zM940 627h283v65 q0 58 -37 93.5t-105 35.5q-67 0 -104 -39t-37 -98v-57z" />
<glyph unicode="&#xe7;" horiz-adv-x="921" d="M74 362v300q0 193 110.5 287.5t317.5 94.5q82 0 161.5 -11.5t116.5 -21.5t97 -28l-35 -231q-89 33 -147.5 47t-125.5 14q-188 0 -188 -186v-230q0 -186 188 -186q67 0 125.5 14t147.5 47l35 -231q-165 -53 -316 -59v-78h21q100 0 152 -44.5t52 -127.5v-27 q0 -77 -59.5 -134.5t-173.5 -57.5q-57 0 -130.5 13t-109.5 28l35 120q85 -30 170 -30q80 0 80 61v10q0 31 -18.5 45.5t-65.5 14.5h-74v207q-366 28 -366 380z" />
<glyph unicode="&#xe8;" horiz-adv-x="1007" d="M72 367v299q0 184 118.5 281t329.5 97q199 0 306.5 -93t107.5 -277v-252h-555v-47q0 -91 49.5 -127.5t144.5 -36.5q168 0 334 61l35 -231q-200 -61 -420 -61q-210 0 -330 97.5t-120 289.5zM203 1413h256l174 -287h-215zM379 621h283v71q0 58 -37 93.5t-105 35.5 q-67 0 -104 -39t-37 -98v-63z" />
<glyph unicode="&#xe9;" horiz-adv-x="1007" d="M72 367v299q0 184 118.5 281t329.5 97q199 0 306.5 -93t107.5 -277v-252h-555v-47q0 -91 49.5 -127.5t144.5 -36.5q168 0 334 61l35 -231q-200 -61 -420 -61q-210 0 -330 97.5t-120 289.5zM379 621h283v71q0 58 -37 93.5t-105 35.5q-67 0 -104 -39t-37 -98v-63zM408 1126 h215l215 287h-256z" />
<glyph unicode="&#xea;" horiz-adv-x="1007" d="M72 367v299q0 184 118.5 281t329.5 97q199 0 306.5 -93t107.5 -277v-252h-555v-47q0 -91 49.5 -127.5t144.5 -36.5q168 0 334 61l35 -231q-200 -61 -420 -61q-210 0 -330 97.5t-120 289.5zM203 1126l198 287h240l199 -287h-234l-86 131l-86 -131h-231zM379 621h283v71 q0 58 -37 93.5t-105 35.5q-67 0 -104 -39t-37 -98v-63z" />
<glyph unicode="&#xeb;" horiz-adv-x="1007" d="M72 367v299q0 184 118.5 281t329.5 97q199 0 306.5 -93t107.5 -277v-252h-555v-47q0 -91 49.5 -127.5t144.5 -36.5q168 0 334 61l35 -231q-200 -61 -420 -61q-210 0 -330 97.5t-120 289.5zM143 1155h308v295h-308v-295zM379 621h283v71q0 58 -37 93.5t-105 35.5 q-67 0 -104 -39t-37 -98v-63zM590 1155h307v295h-307v-295z" />
<glyph unicode="&#xec;" horiz-adv-x="514" d="M-61 1413h256l174 -287h-215zM102 0h308v1024h-308v-1024z" />
<glyph unicode="&#xed;" horiz-adv-x="514" d="M102 0h308v1024h-308v-1024zM145 1126h215l215 287h-256z" />
<glyph unicode="&#xee;" horiz-adv-x="514" d="M-61 1126l198 287h240l198 -287h-233l-86 131l-86 -131h-231zM102 0h308v1024h-308v-1024z" />
<glyph unicode="&#xef;" horiz-adv-x="514" d="M-121 1155h307v295h-307v-295zM102 0h308v1024h-308v-1024zM326 1155h307v295h-307v-295z" />
<glyph unicode="&#xf0;" horiz-adv-x="1177" d="M35 416v18q0 188 145.5 308t384.5 120h205v156q0 67 -39 113t-106 61v-150h-162v156h-328v256h328v184h162v-186q213 -17 341 -137.5t128 -296.5v-602q0 -190 -145.5 -313t-383.5 -123t-384 123t-146 313zM360 416q0 -81 57 -130.5t148 -49.5t148 49.5t57 130.5v190h-205 q-92 0 -148.5 -46t-56.5 -126v-18z" />
<glyph unicode="&#xf1;" horiz-adv-x="1095" d="M102 0h308v645q0 76 39 122t112 46q62 0 95.5 -36.5t33.5 -92.5v-684h307v733q0 58 -17.5 111t-53 99t-99.5 73.5t-149 27.5q-29 0 -60.5 -5.5t-72.5 -19.5t-81.5 -44.5t-70.5 -73.5l-33 123h-258v-1024zM221 1130q0 254 191 254q57 0 136 -32.5t99 -32.5q60 0 60 65h172 q0 -130 -46.5 -192t-142.5 -62q-57 0 -136 33t-99 33q-62 0 -62 -66h-172z" />
<glyph unicode="&#xf2;" horiz-adv-x="1040" d="M72 358v308q0 184 118.5 281t329.5 97t330 -97t119 -281v-308q0 -184 -119 -281t-330 -97t-329.5 97t-118.5 281zM203 1413h256l174 -287h-215zM379 340q0 -59 37 -98t104 -39q68 0 105 39t37 98v344q0 59 -37 98t-105 39q-67 0 -104 -39t-37 -98v-344z" />
<glyph unicode="&#xf3;" horiz-adv-x="1040" d="M72 358v308q0 184 118.5 281t329.5 97t330 -97t119 -281v-308q0 -184 -119 -281t-330 -97t-329.5 97t-118.5 281zM379 340q0 -59 37 -98t104 -39q68 0 105 39t37 98v344q0 59 -37 98t-105 39q-67 0 -104 -39t-37 -98v-344zM408 1126h215l215 287h-256z" />
<glyph unicode="&#xf4;" horiz-adv-x="1040" d="M72 358v308q0 184 118.5 281t329.5 97t330 -97t119 -281v-308q0 -184 -119 -281t-330 -97t-329.5 97t-118.5 281zM203 1126l198 287h240l199 -287h-234l-86 131l-86 -131h-231zM379 340q0 -59 37 -98t104 -39q68 0 105 39t37 98v344q0 59 -37 98t-105 39q-67 0 -104 -39 t-37 -98v-344z" />
<glyph unicode="&#xf5;" horiz-adv-x="1040" d="M72 358v308q0 184 118.5 281t329.5 97t330 -97t119 -281v-308q0 -184 -119 -281t-330 -97t-329.5 97t-118.5 281zM190 1130q0 254 191 254q57 0 136 -32.5t99 -32.5q60 0 60 65h172q0 -130 -46.5 -192t-142.5 -62q-57 0 -136 33t-99 33q-62 0 -62 -66h-172zM379 340 q0 -59 37 -98t104 -39q68 0 105 39t37 98v344q0 59 -37 98t-105 39q-67 0 -104 -39t-37 -98v-344z" />
<glyph unicode="&#xf6;" horiz-adv-x="1040" d="M72 358v308q0 184 118.5 281t329.5 97t330 -97t119 -281v-308q0 -184 -119 -281t-330 -97t-329.5 97t-118.5 281zM143 1155h308v295h-308v-295zM379 340q0 -59 37 -98t104 -39q68 0 105 39t37 98v344q0 59 -37 98t-105 39q-67 0 -104 -39t-37 -98v-344zM590 1155h307v295 h-307v-295z" />
<glyph unicode="&#xf7;" horiz-adv-x="940" d="M88 606v242h764v-242h-764zM334 254h272v276h-272v-276zM334 924h272v276h-272v-276z" />
<glyph unicode="&#xf8;" horiz-adv-x="1040" d="M72 -41l94 141q-94 94 -94 258v308q0 184 118.5 281t329.5 97q141 0 242 -43l43 64h164l-95 -141q95 -95 95 -258v-308q0 -184 -119 -281t-330 -97q-140 0 -241 43l-43 -64h-164zM379 422l242 364q-44 35 -101 35q-67 0 -104 -39t-37 -98v-262zM420 238q44 -35 100 -35 q68 0 105 39t37 98v262z" />
<glyph unicode="&#xf9;" horiz-adv-x="1095" d="M98 291q0 -58 18 -111t54 -99t100 -73.5t148 -27.5q28 0 60 5.5t72.5 19.5t81 44.5t70.5 73.5l35 -123h256v1024h-307v-645q0 -76 -38.5 -122t-110.5 -46q-63 0 -97 36.5t-34 92.5v684h-308v-733zM229 1413h256l174 -287h-215z" />
<glyph unicode="&#xfa;" horiz-adv-x="1095" d="M98 291q0 -58 18 -111t54 -99t100 -73.5t148 -27.5q28 0 60 5.5t72.5 19.5t81 44.5t70.5 73.5l35 -123h256v1024h-307v-645q0 -76 -38.5 -122t-110.5 -46q-63 0 -97 36.5t-34 92.5v684h-308v-733zM436 1126h215l215 287h-256z" />
<glyph unicode="&#xfb;" horiz-adv-x="1095" d="M98 291q0 -58 18 -111t54 -99t100 -73.5t148 -27.5q28 0 60 5.5t72.5 19.5t81 44.5t70.5 73.5l35 -123h256v1024h-307v-645q0 -76 -38.5 -122t-110.5 -46q-63 0 -97 36.5t-34 92.5v684h-308v-733zM229 1126l199 287h240l198 -287h-233l-86 131l-86 -131h-232z" />
<glyph unicode="&#xfc;" horiz-adv-x="1095" d="M98 291q0 -58 18 -111t54 -99t100 -73.5t148 -27.5q28 0 60 5.5t72.5 19.5t81 44.5t70.5 73.5l35 -123h256v1024h-307v-645q0 -76 -38.5 -122t-110.5 -46q-63 0 -97 36.5t-34 92.5v684h-308v-733zM172 1155h307v295h-307v-295zM618 1155h308v295h-308v-295z" />
<glyph unicode="&#xfd;" horiz-adv-x="987" d="M-2 -410l22 230q24 -7 75 -13t71 -6q84 0 119.5 26.5t66.5 102.5l23 60h-35l-334 1034h307l197 -680l172 680h299l-354 -1065q-39 -120 -81 -196.5t-96 -119t-114 -58t-146 -15.5q-81 0 -192 20zM385 1126h215l215 287h-256z" />
<glyph unicode="&#xfe;" horiz-adv-x="1077" d="M102 -410v1885h308v-555q59 69 132 96.5t136 27.5q85 0 149 -27.5t99.5 -73.5t53 -99t17.5 -111v-442q0 -58 -17.5 -111t-53 -99t-99.5 -73.5t-149 -27.5q-64 0 -137.5 27.5t-130.5 96.5v-514h-308zM410 379q0 -76 39 -122t112 -46q62 0 95.5 37t33.5 92v344 q0 56 -33.5 92.5t-95.5 36.5q-73 0 -112 -46t-39 -122v-266z" />
<glyph unicode="&#xff;" horiz-adv-x="987" d="M-2 -410l22 230q24 -7 75 -13t71 -6q84 0 119.5 26.5t66.5 102.5l23 60h-35l-334 1034h307l197 -680l172 680h299l-354 -1065q-39 -120 -81 -196.5t-96 -119t-114 -58t-146 -15.5q-81 0 -192 20zM121 1155h307v295h-307v-295zM567 1155h307v295h-307v-295z" />
<glyph unicode="&#x152;" horiz-adv-x="1828" d="M94 416v602q0 193 131.5 314.5t366.5 121.5q280 0 373 -172v152h796v-256h-606v-322h494v-258h-494v-342h606v-256h-796v152q-93 -172 -373 -172q-235 0 -366.5 121.5t-131.5 314.5zM420 416q0 -81 57 -130.5t148 -49.5t147.5 49.5t56.5 130.5v602q0 81 -56.5 130.5 t-147.5 49.5t-148 -49.5t-57 -130.5v-602z" />
<glyph unicode="&#x153;" horiz-adv-x="1595" d="M72 358v308q0 184 118.5 281t329.5 97q180 0 295 -71q112 71 293 71q199 0 306.5 -93t107.5 -277v-252h-553v-47q0 -92 48.5 -128t143.5 -36q168 0 334 61l35 -231q-200 -61 -420 -61q-180 0 -295 71q-112 -71 -295 -71q-211 0 -329.5 97t-118.5 281zM379 340 q0 -59 37 -98t104 -39q68 0 105 39t37 98v344q0 59 -37 98t-105 39q-67 0 -104 -39t-37 -98v-344zM969 621h280v71q0 58 -36.5 93.5t-104.5 35.5q-67 0 -103 -39t-36 -98v-63z" />
<glyph unicode="&#x178;" horiz-adv-x="1234" d="M-6 1434h342l276 -613l293 613h342l-473 -904v-530h-323v530zM240 1565h307v295h-307v-295zM686 1565h307v295h-307v-295z" />
<glyph unicode="&#x2c6;" horiz-adv-x="1030" d="M197 1126l198 287h240l199 -287h-234l-86 131l-86 -131h-231z" />
<glyph unicode="&#x2dc;" horiz-adv-x="663" d="M92 1130q0 254 191 254q57 0 136 -32.5t99 -32.5q60 0 60 65h172q0 -130 -46.5 -192t-142.5 -62q-57 0 -136 33t-99 33q-62 0 -62 -66h-172z" />
<glyph unicode="&#x2000;" horiz-adv-x="942" />
<glyph unicode="&#x2001;" horiz-adv-x="1884" />
<glyph unicode="&#x2002;" horiz-adv-x="942" />
<glyph unicode="&#x2003;" horiz-adv-x="1884" />
<glyph unicode="&#x2004;" horiz-adv-x="628" />
<glyph unicode="&#x2005;" horiz-adv-x="471" />
<glyph unicode="&#x2006;" horiz-adv-x="314" />
<glyph unicode="&#x2007;" horiz-adv-x="314" />
<glyph unicode="&#x2008;" horiz-adv-x="235" />
<glyph unicode="&#x2009;" horiz-adv-x="376" />
<glyph unicode="&#x200a;" horiz-adv-x="104" />
<glyph unicode="&#x2010;" horiz-adv-x="909" d="M106 391v242h697v-242h-697z" />
<glyph unicode="&#x2011;" horiz-adv-x="909" d="M106 391v242h697v-242h-697z" />
<glyph unicode="&#x2012;" horiz-adv-x="909" d="M106 391v242h697v-242h-697z" />
<glyph unicode="&#x2013;" horiz-adv-x="1216" d="M106 391v242h1004v-242h-1004z" />
<glyph unicode="&#x2014;" horiz-adv-x="1421" d="M106 391v242h1209v-242h-1209z" />
<glyph unicode="&#x2018;" horiz-adv-x="489" d="M115 856h274v279l-102 299h-172v-578z" />
<glyph unicode="&#x2019;" horiz-adv-x="481" d="M92 1155v279h273v-578h-172z" />
<glyph unicode="&#x201a;" horiz-adv-x="495" d="M111 0v279h274v-578h-174z" />
<glyph unicode="&#x201c;" horiz-adv-x="995" d="M115 856v578h172l102 -299v-279h-274zM623 856v578h172l102 -299v-279h-274z" />
<glyph unicode="&#x201d;" horiz-adv-x="987" d="M92 1155v279h273v-578h-172zM598 1155v279h274v-578h-172z" />
<glyph unicode="&#x201e;" horiz-adv-x="1001" d="M111 0v279h274v-578h-174zM618 0v279h273v-578h-172z" />
<glyph unicode="&#x2022;" horiz-adv-x="536" d="M115 582h307v311h-307v-311z" />
<glyph unicode="&#x2026;" horiz-adv-x="1509" d="M111 0h274v279h-274v-279zM618 0h273v279h-273v-279zM1124 0h275v279h-275v-279z" />
<glyph unicode="&#x202f;" horiz-adv-x="376" />
<glyph unicode="&#x2039;" horiz-adv-x="694" d="M55 399v224l541 385v-258l-252 -236v-4l252 -236v-258z" />
<glyph unicode="&#x203a;" horiz-adv-x="694" d="M96 16l543 383v224l-543 385v-258l252 -236v-4l-252 -236v-258z" />
<glyph unicode="&#x205f;" horiz-adv-x="471" />
<glyph unicode="&#x20ac;" horiz-adv-x="1333" d="M76 483v174h106v131h-106v173h106v57q0 190 146.5 313t384.5 123q236 0 382 -123t146 -313v-96h-307v96q0 80 -64.5 130t-156.5 50t-149.5 -49.5t-57.5 -130.5v-57h180v-173h-180v-131h180v-174h-180v-67q0 -91 55.5 -135.5t151.5 -44.5t158.5 45t62.5 135v96h307v-96 q0 -190 -146 -313t-382 -123q-238 0 -384.5 123t-146.5 313v67h-106z" />
<glyph unicode="&#x2122;" horiz-adv-x="1636" d="M106 1278v156h560v-156h-181v-705h-196v705h-183zM752 573v861h206l179 -328l172 328h196v-861h-196v310q0 88 6 217l-115 -215h-153l-117 223q8 -120 8 -225v-310h-186z" />
<glyph unicode="&#xfb03;" horiz-adv-x="1822" d="M49 817v207h105v166q0 160 74 232.5t227 72.5q102 0 211 -20l-19 -222q-42 11 -86 11q-54 0 -77 -26.5t-23 -80.5v-133h321v145q0 160 75 233t228 73h635v-320h-307v88h-221q-54 0 -78 -26t-24 -80v-113h194v-207h-194v-817h-308v817h-321v-817h-307v817h-105zM1413 0 v1024h307v-1024h-307z" />
<glyph unicode="&#xfb04;" horiz-adv-x="1822" d="M49 817v207h105v166q0 160 74 232.5t227 72.5q102 0 211 -20l-19 -222q-42 11 -86 11q-54 0 -77 -26.5t-23 -80.5v-133h321v145q0 160 75 233t228 73h635v-1475h-307v1243h-221q-54 0 -78 -26t-24 -80v-113h194v-207h-194v-817h-308v817h-321v-817h-307v817h-105z" />
</font>
</defs>
</svg>
